# File generated by ImageToStl.com - Free Image and 3D model conversion tools

mtllib scanner.mtl

o obj1
v -0.1741849 -0.4161082 -0.15
v -0.1741849 -0.43 -0.145154
v -0.18 -0.4161082 -0.145154
v -0.1741848 0.4161082 -0.15
v -0.18 0.4161082 -0.145154
v -0.1741848 0.43 -0.145154
v 0.1741848 -0.4161082 -0.15
v 0.18 -0.4161082 -0.145154
v 0.1741848 -0.43 -0.145154
v 0.1741848 0.4161082 -0.15
v 0.1741848 0.43 -0.145154
v 0.18 0.4161082 -0.145154
v -0.1741848 -0.43 0.145154
v -0.1741848 -0.4161082 0.15
v -0.18 -0.4161082 0.145154
v -0.1741848 0.4161082 0.15
v -0.1741848 0.43 0.145154
v -0.18 0.4161082 0.145154
v 0.1741848 -0.43 0.145154
v 0.18 -0.4161082 0.145154
v 0.1741848 -0.4161082 0.15
v 0.18 0.4161082 0.145154
v 0.1741849 0.43 0.145154
v 0.1741849 0.4161082 0.15
v 0.18 -0.0497567 0.145154
v 0.1741848 -0.03586494 0.145154
v 0.1741848 -0.0497567 0.15
v -0.18 -0.0497567 0.145154
v -0.1741848 -0.0497567 0.15
v -0.1741848 -0.03586494 0.145154
v 0.18 0.3122896 0.145154
v 0.1741849 0.3122896 0.15
v 0.1741849 0.2983978 0.145154
v -0.18 0.3122896 0.145154
v -0.1741848 0.2983978 0.145154
v -0.1741848 0.3122896 0.15
v 0.1741848 -0.03586494 0.00484592
v 0.18 -0.0497567 -0.00484598
v 0.1741848 -0.02197319 0
v 0.1741848 0.2983978 0.00484592
v 0.1741848 0.284506 0
v 0.18 0.3122896 -0.00484598
v -0.18 -0.0497567 -0.00484592
v -0.1741848 -0.03586494 0.00484598
v -0.1741848 -0.02197313 0
v -0.1741848 0.284506 0
v -0.1741848 0.2983978 0.00484598
v -0.18 0.3122896 -0.00484592
vn 0 1 0
vn 0 0 -1
vn -1 0 0
vn 1 0 0
vn 0 0 1
vn 0 -1 0
vn -0.61837 -0.25885 -0.74204
vn -0.61837 0.25885 -0.74204
vn 0.61837 -0.25885 -0.74204
vn 0.61837 0.25885 -0.74204
vn -0.61837 -0.25885 0.74204
vn -0.61837 0.25885 0.74204
vn 0.61837 -0.25885 0.74204
vn 0.61837 0.25885 0.74204
vn 0.61837 0.25885 0.74204
vn -0.61837 0.25885 0.74204
vn 0.61837 -0.25885 0.74204
vn -0.61837 -0.25885 0.74204
vn 0.92078 0.12848 0.36831
vn 0.92078 -0.12848 0.36831
vn -0.92078 0.12848 0.36831
vn -0.92078 -0.12848 0.36831
vn 0 -0.32937 -0.9442
vn 0 0.32937 -0.9442
vn 0.92244 -0.38614 0
vn 0.92244 0.38614 0
vn 0.64019 0 0.76822
vn 0 -0.32937 0.9442
vn 0 0.32937 0.9442
vn -0.64018 0 0.76822
vn -0.92244 -0.38614 0
vn -0.92244 0.38614 0
vn 0 0.32937 0.9442
vn 0.92244 0.38614 0
vn 0.64018 0 0.76822
vn -0.64018 0 0.76822
vn 0 -0.32937 0.9442
vn 0.92244 -0.38614 0
vn 0.64019 0 -0.76822
vn 0.64018 0 0.76822
vn 0 -0.32937 0.9442
vn -0.92244 0.38614 0
vn -0.64019 0 -0.76822
vn -0.92244 -0.38614 0
vn 0 0.32937 0.9442
vn -0.64018 0 0.76822
vn 0 -1 0
vn -1 0 0
vn 1 0 0
vn 1 0 -0
vn 0 -1 -0
vn 0 -0.32937 -0.9442
vn 0 0.32937 -0.9442
vn 0.92244 -0.38614 0
vn 0.92244 0.38614 0
vn 0.64018 0 0.76822
vn 0 -0.32937 0.9442
vn 0 0.32937 0.9442
vn -0.64019 0 0.76822
vn -0.92244 -0.38614 0
vn -0.92244 0.38614 0
vn 0 0.32937 0.9442
vn 0.92244 0.38614 0
vn 0.64018 0 0.76822
vn -0.64019 0 0.76822
vn 0 -0.32937 0.9442
vn 0.92244 -0.38614 0
vn 0.64018 0 -0.76822
vn 0.64018 0 0.76822
vn 0 -0.32937 0.9442
vn -0.92244 0.38614 0
vn -0.64018 0 -0.76822
vn -0.92244 -0.38614 0
vn 0 0.32937 0.9442
vn -0.64018 0 0.76822
usemtl mat0
f 11//1 17//1 23//1
f 30//1 37//1 44//1
f 4//2 7//2 1//2
f 43//3 48//3 5//3
f 8//4 12//4 38//4
f 24//5 36//5 32//5
f 21//5 29//5 14//5
f 39//5 46//5 45//5
f 35//6 40//6 33//6
f 1//7 2//7 3//7
f 4//8 5//8 6//8
f 7//9 8//9 9//9
f 10//10 11//10 12//10
f 13//11 14//11 15//11
f 16//12 17//12 18//12
f 19//13 20//13 21//13
f 22//14 23//14 24//14
f 25//15 26//15 27//15
f 28//16 29//16 30//16
f 31//17 32//17 33//17
f 34//18 35//18 36//18
f 37//19 38//19 39//19
f 40//20 41//20 42//20
f 43//21 44//21 45//21
f 46//22 47//22 48//22
f 2//23 7//23 9//23
f 11//24 4//24 6//24
f 9//25 20//25 19//25
f 23//26 12//26 11//26
f 21//27 25//27 27//27
f 19//28 14//28 13//28
f 17//29 24//29 23//29
f 15//30 29//30 28//30
f 13//31 3//31 2//31
f 6//32 18//32 17//32
f 26//33 29//33 27//33
f 37//34 25//34 38//34
f 32//35 22//35 24//35
f 34//36 16//36 18//36
f 36//37 33//37 32//37
f 31//38 40//38 42//38
f 8//39 10//39 12//39
f 41//40 38//40 42//40
f 47//41 41//41 40//41
f 44//42 28//42 30//42
f 5//43 1//43 3//43
f 34//44 47//44 35//44
f 39//45 44//45 37//45
f 43//46 46//46 48//46
f 9//47 13//47 2//47
f 11//1 6//1 17//1
f 30//1 26//1 37//1
f 4//2 10//2 7//2
f 48//48 34//48 18//48
f 3//48 15//48 43//48
f 15//48 28//48 43//48
f 48//48 18//48 5//48
f 3//48 43//48 5//48
f 12//49 22//49 42//49
f 22//4 31//4 42//4
f 25//4 20//4 38//4
f 20//4 8//4 38//4
f 12//50 42//50 38//50
f 24//5 16//5 36//5
f 21//5 27//5 29//5
f 39//5 41//5 46//5
f 35//51 47//51 40//51
f 2//52 1//52 7//52
f 11//53 10//53 4//53
f 9//54 8//54 20//54
f 23//55 22//55 12//55
f 21//56 20//56 25//56
f 19//57 21//57 14//57
f 17//58 16//58 24//58
f 15//59 14//59 29//59
f 13//60 15//60 3//60
f 6//61 5//61 18//61
f 26//62 30//62 29//62
f 37//63 26//63 25//63
f 32//64 31//64 22//64
f 34//65 36//65 16//65
f 36//66 35//66 33//66
f 31//67 33//67 40//67
f 8//68 7//68 10//68
f 41//69 39//69 38//69
f 47//70 46//70 41//70
f 44//71 43//71 28//71
f 5//72 4//72 1//72
f 34//73 48//73 47//73
f 39//74 45//74 44//74
f 43//75 45//75 46//75
f 9//47 19//47 13//47
# Vertices: 48, normals: 75, texture coordinates: 0, faces: 92

o obj2
v 0.19641512 -0.01612686 -0.0061652
v 0.19641512 0.15468997 -0.3037713
v -0.19641508 -0.01612704 -0.0061653
v -0.19641518 0.15468991 -0.3037715
v 0.19641512 -0.054945 -0.0284456
v 0.19641512 0.11587185 -0.3260517
v -0.19641508 -0.0549452 -0.0284458
v -0.19641498 0.11587179 -0.3260519
v -0.18350758 -0.01612704 -0.0061653
v 0.18350782 -0.01612686 -0.0061652
v 0.19641512 0.00827552 -0.0486803
v 0.19641512 0.03267796 -0.0911956
v 0.19641512 0.0570804 -0.13371082
v 0.19641512 0.08148271 -0.17622592
v 0.19641512 0.10588515 -0.21874107
v 0.19641512 0.13028759 -0.26125629
v 0.14029652 0.15468997 -0.3037713
v 0.08417793 0.15468997 -0.3037715
v 0.02805926 0.15468997 -0.3037715
v -0.02805916 0.15468997 -0.3037715
v -0.08417783 0.15468997 -0.3037715
v -0.14029628 0.15468985 -0.3037715
v -0.19641518 0.13028741 -0.26125635
v -0.19641518 0.10588503 -0.21874125
v -0.19641518 0.08148253 -0.17622598
v -0.19641518 0.05708028 -0.133711
v -0.19641508 0.03267778 -0.0911956
v -0.19641508 0.00827534 -0.0486805
v -0.19641508 -0.0493997 -0.0252628
v -0.19641508 -0.0438542 -0.0220799
v -0.19641508 -0.0383087 -0.018897
v -0.19641508 -0.0327634 -0.0157141
v -0.19641508 -0.02721797 -0.0125312
v -0.19641508 -0.02167248 -0.0093483
v -0.19641498 0.14914441 -0.3069545
v -0.19641498 0.14359897 -0.3101374
v -0.19641498 0.13805348 -0.3133203
v -0.19641498 0.13250822 -0.3165031
v -0.19641498 0.12696272 -0.3196861
v -0.19641498 0.12141723 -0.322869
v -0.19641498 0.09146935 -0.28353674
v -0.19641498 0.06706703 -0.24102164
v -0.19641498 0.04266454 -0.19850637
v -0.19641518 0.01826222 -0.15599139
v -0.19641498 -0.00614034 -0.11347606
v -0.19641498 -0.0305427 -0.0709609
v 0.18350782 -0.054945 -0.0284456
v -0.18350758 -0.0549451 -0.0284457
v -0.14029628 0.11587179 -0.3260519
v -0.08417777 0.11587185 -0.3260519
v -0.02805922 0.11587185 -0.3260519
v 0.02805926 0.11587191 -0.3260519
v 0.08417793 0.11587179 -0.3260517
v 0.14029652 0.11587179 -0.3260517
v 0.19641512 0.09146953 -0.28353668
v 0.19641512 0.06706715 -0.24102146
v 0.19641512 0.04266472 -0.19850631
v 0.19641512 0.01826228 -0.15599121
v 0.19641512 -0.00614016 -0.113476
v 0.19641512 -0.0305426 -0.0709608
v 0.19641512 -0.02167236 -0.0093481
v 0.19641512 -0.02721779 -0.012531
v 0.19641512 -0.0327633 -0.015714
v 0.19641512 -0.0383086 -0.0188968
v 0.19641512 -0.0438541 -0.0220798
v 0.19641512 -0.0493996 -0.0252627
v 0.19641512 0.12141729 -0.3228688
v 0.19641512 0.12696278 -0.3196858
v 0.19641512 0.13250828 -0.3165029
v 0.19641512 0.13805354 -0.3133201
v 0.19641512 0.14359903 -0.3101371
v 0.19641512 0.14914447 -0.3069542
v -0.14029628 0.12141729 -0.322869
v -0.08417777 0.12141734 -0.322869
v -0.02805922 0.12141734 -0.322869
v 0.02805926 0.12141734 -0.322869
v 0.08417793 0.12141729 -0.3228688
v 0.14029652 0.12141729 -0.3228688
v -0.14029628 0.12696272 -0.3196861
v -0.08417777 0.12696278 -0.319686
v -0.02805916 0.12696278 -0.3196861
v 0.02805926 0.12696278 -0.3196861
v 0.08417793 0.12696272 -0.3196858
v 0.14029652 0.12696272 -0.3196858
v -0.14029628 0.13250822 -0.3165031
v -0.08417783 0.13250822 -0.3165031
v -0.02805916 0.13250828 -0.3165031
v 0.02805926 0.13250828 -0.3165031
v 0.08417793 0.13250816 -0.316503
v 0.14029652 0.13250822 -0.316503
v -0.14029628 0.13805354 -0.3133203
v -0.08417783 0.13805354 -0.3133203
v -0.02805916 0.13805354 -0.3133203
v 0.02805926 0.1380536 -0.3133202
v 0.08417793 0.13805354 -0.3133201
v 0.14029652 0.13805354 -0.3133201
v -0.14029628 0.14359903 -0.3101374
v -0.08417783 0.14359903 -0.3101374
v -0.02805916 0.14359897 -0.3101374
v 0.02805926 0.14359909 -0.3101374
v 0.08417793 0.14359903 -0.3101371
v 0.14029652 0.14359903 -0.3101371
v -0.14029628 0.14914441 -0.3069545
v -0.08417783 0.14914447 -0.3069544
v -0.02805916 0.14914453 -0.3069544
v 0.02805926 0.14914453 -0.3069544
v 0.08417793 0.14914453 -0.3069544
v 0.14029652 0.14914447 -0.3069542
v 0.19641512 -0.02499716 -0.0677779
v 0.19641512 -0.01945167 -0.0645949
v 0.19641512 -0.01390623 -0.061412
v 0.19641512 -0.00836085 -0.0582292
v 0.19641512 -0.00281541 -0.0550462
v 0.19641512 0.00272996 -0.0518633
v 0.19641512 -0.00059466 -0.11029305
v 0.19641512 0.00495077 -0.10711016
v 0.19641512 0.01049627 -0.10392721
v 0.19641512 0.01604159 -0.1007444
v 0.19641512 0.02158708 -0.0975614
v 0.19641512 0.02713246 -0.0943785
v 0.19641512 0.02380778 -0.15280827
v 0.19641512 0.02935321 -0.14962538
v 0.19641512 0.03489871 -0.14644243
v 0.19641512 0.04044403 -0.14325954
v 0.19641512 0.04598952 -0.14007666
v 0.19641512 0.0515349 -0.13689371
v 0.19641512 0.04821016 -0.19532336
v 0.19641512 0.05375565 -0.19214048
v 0.19641512 0.05930109 -0.18895753
v 0.19641512 0.0648464 -0.18577464
v 0.19641512 0.07039187 -0.18259175
v 0.19641512 0.07593722 -0.17940887
v 0.19641512 0.07261247 -0.23783857
v 0.19641512 0.07815803 -0.23465563
v 0.19641512 0.08370346 -0.23147268
v 0.19641512 0.08924878 -0.22828985
v 0.19641512 0.09479421 -0.2251069
v 0.19641512 0.10033971 -0.22192401
v 0.19641512 0.09701496 -0.28035379
v 0.19641512 0.10256046 -0.27717079
v 0.19641512 0.10810596 -0.2739879
v 0.19641512 0.11365122 -0.27080507
v 0.19641512 0.11919665 -0.26762212
v 0.19641512 0.12474215 -0.26443917
v -0.18350758 -0.0305427 -0.070961
v 0.18350782 -0.0305426 -0.0709608
v -0.18350758 -0.00614034 -0.11347606
v 0.18350782 -0.00614016 -0.113476
v -0.18350768 0.01826222 -0.15599139
v 0.18350782 0.01826234 -0.15599121
v -0.18350768 0.04266454 -0.19850637
v 0.18350782 0.04266472 -0.19850631
v -0.18350768 0.06706703 -0.24102164
v 0.18350782 0.06706715 -0.24102146
v -0.18350768 0.10743916 -0.3113601
v -0.08417777 0.10743922 -0.3113601
v -0.02805916 0.10743922 -0.3113601
v 0.02805926 0.10743928 -0.3113601
v 0.08417793 0.10743928 -0.3113601
v 0.18350782 0.10743934 -0.3113601
v -0.19641508 0.0027299 -0.0518635
v -0.19641508 -0.00281553 -0.0550464
v -0.19641508 -0.00836097 -0.0582293
v -0.19641508 -0.01390629 -0.0614122
v -0.19641508 -0.01945179 -0.0645951
v -0.19641508 -0.02499722 -0.0677781
v -0.19641508 0.02713228 -0.0943786
v -0.19641508 0.02158691 -0.0975615
v -0.19641508 0.01604141 -0.1007444
v -0.19641508 0.01049609 -0.10392727
v -0.19641508 0.00495059 -0.10711022
v -0.19641508 -0.00059484 -0.11029311
v -0.19641518 0.05153478 -0.13689389
v -0.19641518 0.04598941 -0.14007677
v -0.19641518 0.04044391 -0.14325972
v -0.19641518 0.03489859 -0.14644261
v -0.19641518 0.02935315 -0.14962556
v -0.19641518 0.02380766 -0.15280845
v -0.19641518 0.0759371 -0.17940893
v -0.19641518 0.0703917 -0.18259181
v -0.19641518 0.06484628 -0.1857747
v -0.19641518 0.05930091 -0.18895759
v -0.19641518 0.05375547 -0.19214054
v -0.19641518 0.04820998 -0.19532342
v -0.19641518 0.10033959 -0.22192413
v -0.19641518 0.0947941 -0.22510708
v -0.19641518 0.08924866 -0.22829003
v -0.19641518 0.08370334 -0.23147286
v -0.19641518 0.07815791 -0.23465575
v -0.19641518 0.07261235 -0.23783875
v -0.19641518 0.12474197 -0.26443923
v -0.19641518 0.11919648 -0.26762218
v -0.19641518 0.11365104 -0.27080513
v -0.19641518 0.10810578 -0.27398796
v -0.19641518 0.10256028 -0.2771709
v -0.19641518 0.09701479 -0.28035385
v 0.18350782 0.00827546 -0.0486804
v -0.18350758 0.00827534 -0.0486805
v 0.18350782 0.03267796 -0.0911956
v -0.18350758 0.03267778 -0.0911956
v 0.18350782 0.0570804 -0.13371082
v -0.18350768 0.05708028 -0.133711
v 0.18350782 0.08148271 -0.17622592
v -0.18350768 0.08148253 -0.17622598
v 0.18350782 0.10588515 -0.21874107
v -0.18350768 0.10588503 -0.21874125
v 0.18350782 0.1462574 -0.28907967
v 0.08417793 0.14625734 -0.28907967
v 0.02805926 0.14625734 -0.28907967
v -0.02805916 0.14625734 -0.28907967
v -0.08417783 0.14625728 -0.28907967
v -0.18350768 0.14625722 -0.28907973
vn 0 0.86729 0.4978
vn -1 -2E-05 -2E-05
vn -0 -0.86729 -0.4978
vn 1 0 -0
vn -0 0.4978 -0.86729
vn 0 0.4978 -0.86729
vn -0 0.4978 -0.86729
vn -0 0.4978 -0.86729
vn 0 0.4978 -0.86729
vn 0 0.4978 -0.86729
vn 0 0.4978 -0.86729
vn 0 0.4978 -0.86729
vn 0 0.4978 -0.86729
vn -0 0.4978 -0.86729
vn 0 0.4978 -0.86729
vn 0 0.4978 -0.86729
vn 0 0.4978 -0.86729
vn 0 0.4978 -0.86729
vn 0 0.4978 -0.86729
vn 0 0.4978 -0.86729
vn 0 0.4978 -0.86729
vn 0 0.4978 -0.86729
vn -0 0.4978 -0.86729
vn -0 0.4978 -0.86729
vn 0 0.4978 -0.86729
vn 0 0.4978 -0.86729
vn -0 0.4978 -0.86729
vn 0 0.4978 -0.86729
vn -0 0.4978 -0.86729
vn 0 0.4978 -0.86729
vn 0 0.4978 -0.86729
vn 0 0.4978 -0.86729
vn 0 0.4978 -0.86729
vn -0 0.4978 -0.86729
vn 0 0.4978 -0.86729
vn -0 0.4978 -0.86729
vn 0 0.4978 -0.86729
vn -0 0.4978 -0.86729
vn -0 0.4978 -0.86729
vn 0 0.4978 -0.86729
vn -0 0.4978 -0.86729
vn 0 0.4978 -0.86729
vn 0 0.4978 -0.86729
vn 0 0.49777 -0.86731
vn 0 0.4978 -0.86729
vn -0 0.4978 -0.86729
vn 0 0.4978 -0.86729
vn 0 0.4978 -0.86729
vn 0 0.4978 -0.86729
vn 1E-05 -0.4978 0.86729
vn 0 -0.4978 0.86729
vn 1 0 0
vn 1 -0 0
vn 1 -0 -0
vn 1 -0 0
vn 1 0 0
vn 1 0 0
vn 1 1E-05 0
vn 1 1E-05 0
vn 1 0 0
vn 1 -0 0
vn 1 -0 0
vn 1 0 0
vn 1 -0 0
vn 1 -0 -0
vn 1 0 -0
vn 1 1E-05 -0
vn 1 0 -0
vn 1 -0 -0
vn 1 -0 -0
vn 1 0 0
vn 1 -0 0
vn 1 -0 0
vn 1 -0 0
vn 1 -0 0
vn 1 0 0
vn 1 -0 0
vn 1 -1E-05 0
vn 1 -0 0
vn 1 -0 0
vn 1 0 0
vn 1 0 0
vn 1 -0 -0
vn 1 0 -0
vn 1 -0 -0
vn 1 0 -0
vn 1 0 -0
vn 1 -0 -0
vn 0 -0.86729 -0.4978
vn -0 -0.86729 -0.4978
vn 0 -0.86729 -0.4978
vn -0 -0.86729 -0.4978
vn 0 -0.86729 -0.4978
vn 0 -0.86729 -0.4978
vn 1E-05 -0.86729 -0.4978
vn -0 -0.86729 -0.4978
vn 0 -0.86729 -0.4978
vn 0 -0.86729 -0.4978
vn -0 -0.86729 -0.4978
vn 0 -0.86729 -0.4978
vn -0 -0.86729 -0.4978
vn 0 -0.86729 -0.4978
vn -0 -0.86729 -0.4978
vn 0 -0.86729 -0.4978
vn -1 0 0
vn -1 -3E-05 -2E-05
vn -1 -3E-05 -2E-05
vn -1 0 0
vn -1 -3E-05 -2E-05
vn -1 -3E-05 -2E-05
vn -1 -0 0
vn -1 -0 0
vn -1 0 0
vn -1 0 0
vn -1 0 0
vn -1 -0 0
vn -1 0 0
vn -1 -0 0
vn -1 -0 0
vn -1 -0 0
vn -1 -0 0
vn -1 -0 0
vn -1 -0 0
vn -1 0 0
vn -1 -0 0
vn -1 0 0
vn -1 0 0
vn -1 0 0
vn -1 0 0
vn -1 -0 0
vn -1 -0 0
vn -1 -0 0
vn -1 0 0
vn -1 0 0
vn -1 0 0
vn -1 -0 0
vn -1 -0 0
vn -1 0 0
vn -1 0 0
vn -1 -0 0
vn -1 0 -0
vn -1 0 -0
vn -1 0 -0
vn -1 0 -0
vn -1 0 -0
vn 0 0.86729 0.4978
vn 0 0.86729 0.4978
vn 0 0.86729 0.4978
vn 0 0.86729 0.4978
vn 0 0.86729 0.4978
vn 0 0.86729 0.4978
vn 0 0.86729 0.4978
vn -1E-05 0.86729 0.4978
vn 0 0.86729 0.4978
vn 0 0.86729 0.4978
vn 0 0.86729 0.4978
vn 0 0.86729 0.4978
vn -0 0.86729 0.4978
vn 0 0.86729 0.4978
vn -0 0.86729 0.4978
vn -0 0.86729 0.4978
vn 0 -0.4978 0.86729
vn -1 0 0
vn 1 0 -0
vn -0 -0.86729 -0.4978
vn -0 -0.86729 -0.4978
vn 0 0.86729 0.4978
vn 0 0.86729 0.4978
vn 0 0.86729 0.4978
vn -1 0 0
vn 0 -0.86729 -0.4978
vn 1 -1E-05 -0
vn 0 0.4978 -0.86729
vn -0 0.4978 -0.86729
vn 0 0.4978 -0.86729
vn 0 0.4978 -0.86729
vn -0 0.4978 -0.86729
vn -0 0.4978 -0.86729
vn -0 0.4978 -0.86729
vn 0 0.4978 -0.86729
vn 0 0.4978 -0.86729
vn -0 0.4978 -0.86729
vn 0 0.4978 -0.86729
vn -0 0.4978 -0.86729
vn 0 0.4978 -0.86729
vn 0 0.4978 -0.86729
vn 0 0.4978 -0.86729
vn -0 0.4978 -0.86729
vn 0 0.4978 -0.86729
vn 0 0.4978 -0.86729
vn -0 0.4978 -0.86729
vn 0 0.4978 -0.86729
vn 0 0.4978 -0.86729
vn 0 0.4978 -0.86729
vn 0 0.4978 -0.86729
vn -0 0.4978 -0.86729
vn -0 0.4978 -0.86729
vn 0 0.4978 -0.86729
vn 0 0.4978 -0.86729
vn 0 0.4978 -0.86729
vn -0 0.4978 -0.86729
vn -0 0.4978 -0.86729
vn 0 0.49777 -0.86731
vn 0 0.4978 -0.86729
vn 0 0.4978 -0.86729
vn -0 0.4978 -0.86729
vn -0 0.4978 -0.86729
vn 0 0.4978 -0.86729
vn 0 -0.4978 0.86729
vn -1E-05 -0.4978 0.86729
vn -1E-05 -0.4978 0.86729
vn 1E-05 -0.4978 0.86729
vn 1E-05 -0.4978 0.86729
vn -0 -0.4978 0.86729
vn 0 -0.4978 0.86729
vn 0 -0.4978 0.86729
vn 0 -0.4978 0.86729
vn 1E-05 -0.4978 0.86729
vn -1E-05 -0.4978 0.86729
vn -1E-05 -0.4978 0.86729
vn 1 1E-05 -0
vn 1 -1E-05 0
vn 1 -1E-05 0
vn 1 -1E-05 0
vn 1 1E-05 0
vn 1 -1E-05 0
vn 1 1E-05 0
vn 1 1E-05 0
vn 1 -1E-05 -0
vn 1 0 -0
vn 1 1E-05 -0
vn 1 0 -0
vn 1 1E-05 0
vn 1 -1E-05 0
vn 1 1E-05 0
vn 1 1E-05 0
vn 1 0 -0
vn 1 1E-05 -0
vn -0 -0.86729 -0.4978
vn 0 -0.86729 -0.4978
vn -0 -0.86729 -0.4978
vn -0 -0.86729 -0.4978
vn 0 -0.86729 -0.4978
vn -0 -0.86729 -0.4978
vn 0 -0.86729 -0.4978
vn 0 -0.86729 -0.4978
vn -0 -0.86729 -0.4978
vn -0 -0.86729 -0.4978
vn 0 -0.86729 -0.4978
vn 0 -0.86729 -0.4978
vn -0 -0.86729 -0.4978
vn 0 -0.86729 -0.4978
vn -0 -0.86729 -0.4978
vn -1 -3E-05 -2E-05
vn -1 -3E-05 -2E-05
vn -1 0 0
vn -1 -2E-05 -2E-05
vn -1 -2E-05 -2E-05
vn -1 -3E-05 -2E-05
vn -1 1E-05 0
vn -1 1E-05 0
vn -1 0 0
vn -1 -1E-05 0
vn -1 -1E-05 0
vn -1 -1E-05 0
vn -1 -4E-05 -2E-05
vn -1 1E-05 -0
vn -1 0 -0
vn 0 0.86729 0.4978
vn 0 0.86729 0.4978
vn 0 0.86729 0.4978
vn 0 0.86729 0.4978
vn 0 0.86729 0.4978
vn -0 0.86729 0.4978
vn -1E-05 0.86729 0.4978
vn 0 0.86729 0.4978
vn 0 0.86729 0.4978
vn 0 0.86729 0.4978
vn 0 0.86729 0.4978
vn 0 0.86729 0.4978
vn -0 0.86729 0.4978
vn 0 0.86729 0.4978
vn -0 0.86729 0.4978
vn -0 0.86729 0.4978
vn 0 -0.4978 0.86729
vn 0 -0.4978 0.86729
vn 0 -0.4978 0.86729
vn 0 -0.4978 0.86729
vn 0 -0.4978 0.86729
vn 0 -0.4978 0.86729
vn 0 -0.4978 0.86729
vn 0 -0.4978 0.86729
vn -1 0 0
vn -1 -0 0
vn -1 0 0
vn -1 -0 0
vn -1 -0 0
vn -1 0 0
vn 1 -0 0
vn 1 0 0
vn 1 0 0
vn 1 0 -0
vn 1 -0 -0
vn 1 0 -0
usemtl mat1
f 260//76 52//76 71//76
f 88//77 89//77 244//77
f 208//78 54//78 103//78
f 120//79 64//79 192//79
f 65//80 120//80 156//80
f 126//81 54//81 102//81
f 132//82 115//82 126//82
f 138//83 116//83 132//83
f 144//84 117//84 138//84
f 150//85 118//85 144//85
f 156//86 119//86 150//86
f 88//87 97//87 56//87
f 121//88 98//88 97//88
f 122//89 99//89 98//89
f 123//90 100//90 99//90
f 124//91 101//91 100//91
f 125//92 102//92 101//92
f 87//93 121//93 88//93
f 127//88 122//88 121//88
f 128//93 123//93 122//93
f 129//94 124//94 123//94
f 130//95 125//95 124//95
f 131//96 126//96 125//96
f 86//97 127//97 87//97
f 133//98 128//98 127//98
f 134//99 129//99 128//99
f 135//100 130//100 129//100
f 136//101 131//101 130//101
f 137//102 132//102 131//102
f 85//103 133//103 86//103
f 139//104 134//104 133//104
f 140//105 135//105 134//105
f 141//106 136//106 135//106
f 142//107 137//107 136//107
f 143//108 138//108 137//108
f 84//109 139//109 85//109
f 145//110 140//110 139//110
f 146//103 141//103 140//103
f 147//111 142//111 141//111
f 148//112 143//112 142//112
f 149//113 144//113 143//113
f 83//114 145//114 84//114
f 151//115 146//115 145//115
f 152//116 147//116 146//116
f 153//117 148//117 147//117
f 154//118 149//118 148//118
f 155//119 150//119 149//119
f 52//120 151//120 83//120
f 70//121 152//121 151//121
f 69//117 153//117 152//117
f 68//122 154//122 153//122
f 67//123 155//123 154//123
f 66//124 156//124 155//124
f 77//125 96//125 78//125
f 95//126 111//126 58//126
f 162//127 49//127 109//127
f 168//128 59//128 162//128
f 174//129 60//129 168//129
f 180//130 61//130 174//130
f 186//131 62//131 180//131
f 192//132 63//132 186//132
f 108//133 114//133 53//133
f 157//133 113//133 114//133
f 158//134 112//134 113//134
f 159//127 111//127 112//127
f 160//127 110//127 111//127
f 161//135 109//135 110//135
f 107//136 157//136 108//136
f 163//137 158//137 157//137
f 164//136 159//136 158//136
f 165//138 160//138 159//138
f 166//136 161//136 160//136
f 167//139 162//139 161//139
f 106//140 163//140 107//140
f 169//141 164//141 163//141
f 170//142 165//142 164//142
f 171//143 166//143 165//143
f 172//144 167//144 166//144
f 173//145 168//145 167//145
f 105//146 169//146 106//146
f 175//130 170//130 169//130
f 176//135 171//135 170//135
f 177//147 172//147 171//147
f 178//135 173//135 172//135
f 179//148 174//148 173//148
f 104//132 175//132 105//132
f 181//149 176//149 175//149
f 182//150 177//150 176//150
f 183//151 178//151 177//151
f 184//152 179//152 178//152
f 185//153 180//153 179//153
f 103//154 181//154 104//154
f 187//155 182//155 181//155
f 188//150 183//150 182//150
f 189//156 184//156 183//156
f 190//157 185//157 184//157
f 191//146 186//146 185//146
f 54//158 187//158 103//158
f 115//159 188//159 187//159
f 116//160 189//160 188//160
f 117//161 190//161 189//161
f 118//162 191//162 190//162
f 119//163 192//163 191//163
f 194//164 53//164 95//164
f 196//165 108//165 194//165
f 198//166 107//166 196//166
f 200//167 106//167 198//167
f 202//168 105//168 200//168
f 202//169 103//169 104//169
f 94//170 96//170 55//170
f 93//171 193//171 94//171
f 92//172 195//172 93//172
f 91//164 197//164 92//164
f 90//173 199//173 91//173
f 89//174 201//174 90//174
f 97//175 204//175 203//175
f 98//176 205//176 204//176
f 99//177 206//177 205//177
f 100//178 207//178 206//178
f 207//179 102//179 208//179
f 214//180 55//180 77//180
f 220//181 94//181 214//181
f 226//182 93//182 220//182
f 232//183 92//183 226//183
f 238//184 91//184 232//184
f 244//185 90//185 238//185
f 76//186 82//186 51//186
f 209//187 81//187 82//187
f 210//188 80//188 81//188
f 211//189 79//189 80//189
f 212//180 78//180 79//180
f 213//190 77//190 78//190
f 75//191 209//191 76//191
f 215//192 210//192 209//192
f 216//183 211//183 210//183
f 217//193 212//193 211//193
f 218//194 213//194 212//194
f 219//194 214//194 213//194
f 74//195 215//195 75//195
f 221//196 216//196 215//196
f 222//197 217//197 216//197
f 223//198 218//198 217//198
f 224//199 219//199 218//199
f 225//200 220//200 219//200
f 73//201 221//201 74//201
f 227//202 222//202 221//202
f 228//183 223//183 222//183
f 229//203 224//203 223//203
f 230//204 225//204 224//204
f 231//201 226//201 225//201
f 72//205 227//205 73//205
f 233//206 228//206 227//206
f 234//207 229//207 228//207
f 235//208 230//208 229//208
f 236//209 231//209 230//209
f 237//210 232//210 231//210
f 71//211 233//211 72//211
f 239//209 234//209 233//209
f 240//186 235//186 234//186
f 241//212 236//212 235//212
f 242//213 237//213 236//213
f 243//214 238//214 237//214
f 52//215 239//215 71//215
f 83//216 240//216 239//216
f 84//217 241//217 240//217
f 85//218 242//218 241//218
f 86//219 243//219 242//219
f 87//220 244//220 243//220
f 246//221 51//221 57//221
f 248//222 76//222 246//222
f 250//223 75//223 248//223
f 252//224 74//224 250//224
f 254//225 73//225 252//225
f 254//226 71//226 72//226
f 59//227 58//227 49//227
f 60//228 245//228 59//228
f 61//229 247//229 60//229
f 62//230 249//230 61//230
f 63//231 251//231 62//231
f 64//232 253//232 63//232
f 65//233 256//233 255//233
f 66//222 257//222 256//222
f 67//234 258//234 257//234
f 68//235 259//235 258//235
f 259//236 70//236 260//236
f 206//237 207//237 257//237
f 251//238 198//238 249//238
f 201//239 260//239 254//239
f 97//240 203//240 56//240
f 89//241 56//241 203//241
f 65//242 255//242 50//242
f 50//243 255//243 64//243
f 260//244 70//244 52//244
f 88//245 56//245 89//245
f 208//246 102//246 54//246
f 120//247 50//247 64//247
f 65//248 50//248 120//248
f 126//249 115//249 54//249
f 132//250 116//250 115//250
f 138//251 117//251 116//251
f 144//252 118//252 117//252
f 150//251 119//251 118//251
f 156//253 120//253 119//253
f 88//254 121//254 97//254
f 121//96 122//96 98//96
f 122//93 123//93 99//93
f 123//255 124//255 100//255
f 124//256 125//256 101//256
f 125//257 126//257 102//257
f 87//258 127//258 121//258
f 127//259 128//259 122//259
f 128//93 129//93 123//93
f 129//260 130//260 124//260
f 130//261 131//261 125//261
f 131//262 132//262 126//262
f 86//263 133//263 127//263
f 133//264 134//264 128//264
f 134//93 135//93 129//93
f 135//90 136//90 130//90
f 136//265 137//265 131//265
f 137//266 138//266 132//266
f 85//267 139//267 133//267
f 139//268 140//268 134//268
f 140//269 141//269 135//269
f 141//85 142//85 136//85
f 142//270 143//270 137//270
f 143//271 144//271 138//271
f 84//108 145//108 139//108
f 145//272 146//272 140//272
f 146//93 147//93 141//93
f 147//90 148//90 142//90
f 148//273 149//273 143//273
f 149//274 150//274 144//274
f 83//275 151//275 145//275
f 151//276 152//276 146//276
f 152//277 153//277 147//277
f 153//255 154//255 148//255
f 154//278 155//278 149//278
f 155//279 156//279 150//279
f 52//280 70//280 151//280
f 70//281 69//281 152//281
f 69//262 68//262 153//262
f 68//100 67//100 154//100
f 67//282 66//282 155//282
f 66//283 65//283 156//283
f 51//284 82//284 57//284
f 80//285 79//285 96//285
f 57//286 82//286 81//286
f 79//287 78//287 96//287
f 57//288 81//288 80//288
f 55//289 96//289 77//289
f 57//290 80//290 96//290
f 49//291 58//291 109//291
f 95//292 53//292 114//292
f 113//293 112//293 95//293
f 95//292 114//292 113//292
f 109//293 58//293 110//293
f 112//294 111//294 95//294
f 110//295 58//295 111//295
f 162//127 59//127 49//127
f 168//127 60//127 59//127
f 174//296 61//296 60//296
f 180//127 62//127 61//127
f 186//127 63//127 62//127
f 192//297 64//297 63//297
f 108//298 157//298 114//298
f 157//299 158//299 113//299
f 158//297 159//297 112//297
f 159//300 160//300 111//300
f 160//301 161//301 110//301
f 161//127 162//127 109//127
f 107//127 163//127 157//127
f 163//302 164//302 158//302
f 164//127 165//127 159//127
f 165//127 166//127 160//127
f 166//127 167//127 161//127
f 167//303 168//303 162//303
f 106//304 169//304 163//304
f 169//305 170//305 164//305
f 170//304 171//304 165//304
f 171//306 172//306 166//306
f 172//307 173//307 167//307
f 173//307 174//307 168//307
f 105//127 175//127 169//127
f 175//308 176//308 170//308
f 176//309 177//309 171//309
f 177//127 178//127 172//127
f 178//127 179//127 173//127
f 179//310 180//310 174//310
f 104//127 181//127 175//127
f 181//311 182//311 176//311
f 182//127 183//127 177//127
f 183//127 184//127 178//127
f 184//302 185//302 179//302
f 185//127 186//127 180//127
f 103//127 187//127 181//127
f 187//127 188//127 182//127
f 188//127 189//127 183//127
f 189//127 190//127 184//127
f 190//127 191//127 185//127
f 191//127 192//127 186//127
f 54//79 115//79 187//79
f 115//79 116//79 188//79
f 116//79 117//79 189//79
f 117//79 118//79 190//79
f 118//312 119//312 191//312
f 119//313 120//313 192//313
f 194//314 108//314 53//314
f 196//315 107//315 108//315
f 198//316 106//316 107//316
f 200//317 105//317 106//317
f 202//318 104//318 105//318
f 202//319 208//319 103//319
f 94//171 193//171 96//171
f 93//320 195//320 193//320
f 92//321 197//321 195//321
f 91//322 199//322 197//322
f 90//323 201//323 199//323
f 89//324 203//324 201//324
f 97//325 98//325 204//325
f 98//326 99//326 205//326
f 99//327 100//327 206//327
f 100//328 101//328 207//328
f 207//320 101//320 102//320
f 214//329 94//329 55//329
f 220//330 93//330 94//330
f 226//331 92//331 93//331
f 232//332 91//332 92//332
f 238//333 90//333 91//333
f 244//334 89//334 90//334
f 76//335 209//335 82//335
f 209//209 210//209 81//209
f 210//209 211//209 80//209
f 211//209 212//209 79//209
f 212//209 213//209 78//209
f 213//209 214//209 77//209
f 75//209 215//209 209//209
f 215//209 216//209 210//209
f 216//335 217//335 211//335
f 217//209 218//209 212//209
f 218//209 219//209 213//209
f 219//209 220//209 214//209
f 74//336 221//336 215//336
f 221//245 222//245 216//245
f 222//337 223//337 217//337
f 223//337 224//337 218//337
f 224//337 225//337 219//337
f 225//337 226//337 220//337
f 73//209 227//209 221//209
f 227//209 228//209 222//209
f 228//338 229//338 223//338
f 229//209 230//209 224//209
f 230//209 231//209 225//209
f 231//339 232//339 226//339
f 72//209 233//209 227//209
f 233//209 234//209 228//209
f 234//209 235//209 229//209
f 235//209 236//209 230//209
f 236//340 237//340 231//340
f 237//209 238//209 232//209
f 71//209 239//209 233//209
f 239//209 240//209 234//209
f 240//209 241//209 235//209
f 241//209 242//209 236//209
f 242//209 243//209 237//209
f 243//209 244//209 238//209
f 52//341 83//341 239//341
f 83//342 84//342 240//342
f 84//217 85//217 241//217
f 85//217 86//217 242//217
f 86//343 87//343 243//343
f 87//217 88//217 244//217
f 246//344 76//344 51//344
f 248//345 75//345 76//345
f 250//346 74//346 75//346
f 252//347 73//347 74//347
f 254//348 72//348 73//348
f 254//349 260//349 71//349
f 59//350 245//350 58//350
f 60//351 247//351 245//351
f 61//352 249//352 247//352
f 62//353 251//353 249//353
f 63//354 253//354 251//354
f 64//355 255//355 253//355
f 65//356 66//356 256//356
f 66//357 67//357 257//357
f 67//232 68//232 258//232
f 68//358 69//358 259//358
f 259//359 69//359 70//359
f 260//360 203//360 204//360
f 205//361 206//361 257//361
f 260//362 204//362 259//362
f 258//363 259//363 205//363
f 255//364 256//364 208//364
f 259//365 204//365 205//365
f 208//362 256//362 207//362
f 257//366 258//366 205//366
f 207//367 256//367 257//367
f 194//368 95//368 58//368
f 245//369 247//369 196//369
f 194//209 58//209 245//209
f 200//370 198//370 251//370
f 196//209 194//209 245//209
f 247//245 249//245 196//245
f 253//371 255//371 208//371
f 196//372 249//372 198//372
f 251//368 253//368 202//368
f 202//369 200//369 251//369
f 253//373 208//373 202//373
f 57//127 96//127 193//127
f 195//374 248//374 246//374
f 57//127 193//127 246//127
f 250//375 197//375 199//375
f 246//376 193//376 195//376
f 199//127 201//127 254//127
f 195//377 197//377 248//377
f 254//127 252//127 199//127
f 248//378 197//378 250//378
f 201//379 203//379 260//379
f 252//127 250//127 199//127
# Vertices: 212, normals: 304, texture coordinates: 0, faces: 420

o obj3
v 0.04656335 0.25986592 0.05638881
v 0.04643002 0.29948613 0.05638881
v 0.04332837 0.25985501 0.07265235
v 0.04319497 0.29947516 0.07265235
v 0.03411582 0.25982407 0.08643998
v 0.03398236 0.29944411 0.08643998
v 0.02032819 0.25977764 0.09565265
v 0.02019485 0.29939779 0.09565265
v 0.00406476 0.25972292 0.09888763
v 0.00393139 0.29934296 0.09888763
v -0.01219871 0.25966809 0.09565265
v -0.01233211 0.29928824 0.09565265
v -0.02598622 0.25962178 0.08643998
v -0.02611968 0.29924181 0.08643998
v -0.03519883 0.25959072 0.07265235
v -0.03533223 0.29921087 0.07265235
v -0.03843388 0.25957981 0.05638881
v -0.03856721 0.29919996 0.05638881
v -0.03519883 0.25959072 0.04012527
v -0.03533223 0.29921087 0.04012527
v -0.02598622 0.25962178 0.02633752
v -0.02611968 0.29924181 0.02633752
v -0.01219871 0.25966809 0.01712497
v -0.01233205 0.29928824 0.01712497
v 0.00406476 0.25972292 0.01388987
v 0.00393139 0.29934296 0.01388987
v 0.02032825 0.25977764 0.01712497
v 0.02019485 0.29939779 0.01712497
v 0.03411582 0.25982407 0.02633764
v 0.03398248 0.29944411 0.02633764
v 0.04332837 0.25985501 0.04012527
v 0.04319497 0.29947516 0.04012527
vn 0.98078 0.0033 0.19509
vn 0.83146 0.0028 0.55557
vn 0.55557 0.00187 0.83147
vn 0.19509 0.00066 0.98079
vn -0.19509 -0.00066 0.98079
vn -0.55557 -0.00187 0.83147
vn -0.83146 -0.0028 0.55557
vn -0.98078 -0.0033 0.19509
vn -0.98078 -0.0033 -0.1951
vn -0.83147 -0.0028 -0.55557
vn -0.55557 -0.00187 -0.83147
vn -0.19509 -0.00066 -0.98078
vn 0.19509 0.00066 -0.98078
vn 0.55557 0.00187 -0.83147
vn -0.00337 0.99999 -0
vn 0.83146 0.0028 -0.55557
vn 0.98078 0.0033 -0.19509
vn 0.00337 -0.99999 0
vn 0.98078 0.0033 0.19509
vn 0.83146 0.0028 0.55557
vn 0.55557 0.00187 0.83147
vn 0.19509 0.00066 0.98079
vn -0.19509 -0.00066 0.98079
vn -0.55557 -0.00187 0.83147
vn -0.83146 -0.0028 0.55557
vn -0.98078 -0.0033 0.19509
vn -0.98078 -0.0033 -0.19509
vn -0.83147 -0.0028 -0.55557
vn -0.55556 -0.00187 -0.83147
vn -0.19509 -0.00066 -0.98078
vn 0.19509 0.00066 -0.98078
vn 0.55557 0.00187 -0.83147
vn -0.00337 0.99999 0
vn -0.00337 0.99999 -0
vn -0.00337 0.99999 2E-05
vn -0.00337 0.99999 -0
vn -0.00337 0.99999 0
vn -0.00335 0.99999 0
vn -0.00335 0.99999 -0
vn -0.00336 0.99999 -0
vn -0.00337 0.99999 -2E-05
vn -0.00337 0.99999 0
vn -0.00337 0.99999 -0
vn -0.00337 0.99999 -0
vn -0.00337 0.99999 0
vn 0.83147 0.0028 -0.55557
vn 0.98078 0.0033 -0.19509
vn 0.00337 -0.99999 0
vn 0.00337 -0.99999 1E-05
vn 0.00337 -0.99999 1E-05
vn 0.00335 -0.99999 1E-05
vn 0.00338 -0.99999 0
vn 0.00335 -0.99999 -1E-05
vn 0.00337 -0.99999 -1E-05
vn 0.00337 -0.99999 -1E-05
vn 0.00336 -0.99999 0
vn 0.00337 -0.99999 -0
vn 0.00336 -0.99999 0
vn 0.00337 -0.99999 -0
vn 0.00337 -0.99999 0
usemtl mat1
f 262//380 263//380 261//380
f 264//381 265//381 263//381
f 266//382 267//382 265//382
f 268//383 269//383 267//383
f 270//384 271//384 269//384
f 272//385 273//385 271//385
f 274//386 275//386 273//386
f 276//387 277//387 275//387
f 278//388 279//388 277//388
f 280//389 281//389 279//389
f 282//390 283//390 281//390
f 284//391 285//391 283//391
f 286//392 287//392 285//392
f 288//393 289//393 287//393
f 274//394 270//394 266//394
f 290//395 291//395 289//395
f 292//396 261//396 291//396
f 275//397 283//397 291//397
f 262//398 264//398 263//398
f 264//399 266//399 265//399
f 266//400 268//400 267//400
f 268//401 270//401 269//401
f 270//402 272//402 271//402
f 272//403 274//403 273//403
f 274//404 276//404 275//404
f 276//405 278//405 277//405
f 278//406 280//406 279//406
f 280//407 282//407 281//407
f 282//408 284//408 283//408
f 284//409 286//409 285//409
f 286//410 288//410 287//410
f 288//411 290//411 289//411
f 266//412 264//412 262//412
f 262//413 292//413 290//413
f 290//414 288//414 286//414
f 286//415 284//415 290//415
f 284//416 282//416 290//416
f 282//417 280//417 278//417
f 278//418 276//418 274//418
f 274//419 272//419 270//419
f 270//420 268//420 266//420
f 266//421 262//421 282//421
f 262//422 290//422 282//422
f 282//423 278//423 266//423
f 278//424 274//424 266//424
f 290//425 292//425 291//425
f 292//426 262//426 261//426
f 291//427 261//427 263//427
f 263//428 265//428 267//428
f 267//429 269//429 271//429
f 271//430 273//430 275//430
f 275//431 277//431 279//431
f 279//432 281//432 283//432
f 283//433 285//433 287//433
f 287//434 289//434 291//434
f 291//435 263//435 267//435
f 267//436 271//436 275//436
f 275//437 279//437 283//437
f 283//438 287//438 291//438
f 291//439 267//439 275//439
# Vertices: 32, normals: 60, texture coordinates: 0, faces: 60

o obj4
v -0.02558539 0.1704817 0.07492027
v -0.02578662 0.21274251 0.03265942
v 0.03418042 0.17062392 0.074778
v 0.03397919 0.21288476 0.0325172
v -0.02558539 0.21274274 0.1171813
v -0.02578662 0.25500358 0.0749205
v 0.03418042 0.21288499 0.11703908
v 0.03397919 0.2551458 0.07477823
vn 0 -0.70711 -0.70711
vn 0.99999 0.00238 -0.00238
vn 0 0.70711 0.70711
vn -0.99999 -0.00238 0.00238
vn 0.00337 -0.7071 0.7071
vn -0.00337 0.7071 -0.7071
vn 0.99999 0.00238 -0.00238
vn -0.99999 -0.00238 0.00238
vn 0.00337 -0.7071 0.7071
vn -0.00337 0.7071 -0.7071
usemtl mat1
f 294//440 295//440 293//440
f 296//441 299//441 295//441
f 300//442 297//442 299//442
f 298//443 293//443 297//443
f 299//444 293//444 295//444
f 296//445 298//445 300//445
f 294//440 296//440 295//440
f 296//446 300//446 299//446
f 300//442 298//442 297//442
f 298//447 294//447 293//447
f 299//448 297//448 293//448
f 296//449 294//449 298//449
# Vertices: 8, normals: 10, texture coordinates: 0, faces: 12

o obj5
v -0.098173 0.17789964 0.08475043
v -0.03189132 0.1449949 0.05098089
v -0.0949075 0.16767512 0.07432838
v -0.08548162 0.15847264 0.06492158
v -0.07081798 0.15119307 0.05745067
v -0.05235205 0.14654891 0.05264708
v -0.03214643 0.24758724 0.15542115
v -0.0982634 0.21424876 0.12175424
v -0.05259911 0.24589912 0.15378679
v -0.07104168 0.24113408 0.14901174
v -0.08566884 0.23375854 0.14156355
v -0.09504876 0.22449444 0.13217128
v 0.1068755 0.17857145 0.0845914
v 0.04075856 0.1452329 0.05092456
v 0.10366089 0.16832565 0.07417442
v 0.09428097 0.1590616 0.06478216
v 0.07965375 0.15168606 0.05733396
v 0.06121124 0.14692102 0.05255898
v 0.1067851 0.21492057 0.12159522
v 0.04050346 0.2478253 0.15536482
v 0.10351963 0.22514503 0.13201727
v 0.09409375 0.2343475 0.14142413
v 0.07943012 0.24162707 0.14889504
v 0.06096418 0.24627123 0.15369863
v 0.04074402 0.14883892 0.04738226
v -0.03190587 0.14860092 0.04743864
v -0.05236659 0.15015499 0.04910483
v -0.07083253 0.15479909 0.05390843
v -0.08549622 0.16207866 0.06137933
v -0.09492204 0.17128114 0.07078614
v -0.0981876 0.18150567 0.08120818
v -0.0982779 0.21785478 0.118212
v -0.09506337 0.22810052 0.12862898
v -0.08568338 0.23736457 0.1380213
v -0.07105622 0.24474016 0.14546944
v -0.05261365 0.2495052 0.15024449
v -0.03216097 0.25119332 0.1518789
v 0.04048885 0.25143132 0.15182252
v 0.06094964 0.24987725 0.15015639
v 0.07941557 0.24523315 0.14535273
v 0.09407921 0.23795352 0.13788183
v 0.10350509 0.22875111 0.12847496
v 0.1067705 0.21852659 0.11805291
v 0.106861 0.18217747 0.08104916
v 0.10364635 0.17193173 0.07063212
v 0.09426643 0.16266762 0.06123992
v 0.07963921 0.15529208 0.05379172
v 0.06119664 0.15052705 0.04901674
vn 0.00288 -0.71338 0.70077
vn -0.00288 0.71338 -0.70077
vn -0.58249 0.56841 0.58105
vn -0.34023 -0.65966 -0.67014
vn 0.97588 0.15496 0.15374
vn -0.34351 0.65742 0.67067
vn -0.57965 -0.57222 -0.58015
vn 0.99999 0.00328 -0.00078
vn -0.1141 0.69596 0.70896
vn -0.81296 -0.40974 -0.41377
vn 0.97664 -0.14856 -0.15526
vn -0.00174 0.70077 0.71339
vn -0.97588 -0.15497 -0.15374
vn 0.81499 -0.40441 -0.41503
vn 0.11063 0.6967 0.70878
vn -0.99999 -0.00327 0.00077
vn 0.58249 -0.56842 -0.58104
vn 0.34023 0.65967 0.67014
vn -0.97664 0.14857 0.15526
vn 0.3435 -0.65742 -0.67067
vn 0.00174 -0.70077 -0.71339
vn 0.57965 0.57223 0.58014
vn -0.81499 0.4044 0.41503
vn 0.1141 -0.69596 -0.70896
vn -0.11063 -0.6967 -0.70878
vn 0.81296 0.40974 0.41377
vn 0.00288 -0.71338 0.70077
vn 0.00288 -0.71338 0.70077
vn 0.00288 -0.71338 0.70077
vn 0.00288 -0.71338 0.70077
vn 0.00288 -0.71338 0.70077
vn 0.00288 -0.71338 0.70077
vn 0.00288 -0.71338 0.70077
vn 0.00288 -0.71338 0.70077
vn 0.00288 -0.71338 0.70077
vn 0.00288 -0.71338 0.70077
vn 0.00288 -0.71338 0.70077
vn 0.00288 -0.71338 0.70077
vn 0.00288 -0.71338 0.70077
vn 0.00288 -0.71338 0.70077
vn 0.00288 -0.71338 0.70077
vn 0.00288 -0.71338 0.70077
vn 0.00288 -0.71338 0.70077
vn 0.00288 -0.71339 0.70077
vn 0.00288 -0.71338 0.70077
vn 0.00288 -0.71338 0.70077
vn 0.00288 -0.71338 0.70077
vn -0.00288 0.71338 -0.70077
vn -0.00288 0.71338 -0.70077
vn -0.00288 0.71338 -0.70077
vn -0.00288 0.71338 -0.70077
vn -0.00288 0.71338 -0.70077
vn -0.00288 0.71338 -0.70077
vn -0.00288 0.71338 -0.70077
vn -0.00288 0.71338 -0.70077
vn -0.00288 0.71338 -0.70077
vn -0.00288 0.71338 -0.70077
vn -0.00288 0.71338 -0.70077
vn -0.00288 0.71338 -0.70077
vn -0.00288 0.71338 -0.70077
vn -0.00288 0.71338 -0.70077
vn -0.00288 0.71338 -0.70077
vn -0.00288 0.71338 -0.70077
vn -0.00288 0.71338 -0.70077
vn -0.00288 0.71338 -0.70077
vn -0.00288 0.71338 -0.70077
vn -0.00288 0.71338 -0.70077
vn -0.00288 0.71338 -0.70077
vn -0.58249 0.56842 0.58104
vn -0.34023 -0.65966 -0.67014
vn 0.97588 0.15497 0.15374
vn -0.3435 0.65742 0.67067
vn -0.57965 -0.57223 -0.58014
vn 0.99999 0.00327 -0.00078
vn -0.1141 0.69596 0.70896
vn -0.81296 -0.40973 -0.41377
vn 0.97664 -0.14857 -0.15526
vn -0.00174 0.70077 0.71339
vn -0.97588 -0.15496 -0.15374
vn 0.81499 -0.4044 -0.41504
vn 0.11063 0.6967 0.70878
vn -0.99999 -0.00327 0.00078
vn 0.58249 -0.56842 -0.58105
vn 0.34023 0.65967 0.67014
vn -0.97664 0.14857 0.15525
vn 0.3435 -0.65742 -0.67067
vn 0.00174 -0.70077 -0.71339
vn 0.57965 0.57223 0.58014
vn -0.81499 0.4044 0.41504
vn 0.1141 -0.69596 -0.70896
vn -0.11063 -0.69669 -0.70879
vn 0.81296 0.40974 0.41377
usemtl mat1
f 320//450 314//450 319//450
f 347//451 348//451 344//451
f 310//452 334//452 311//452
f 305//453 327//453 306//453
f 319//454 342//454 321//454
f 309//455 335//455 310//455
f 304//456 328//456 305//456
f 313//457 343//457 319//457
f 307//458 336//458 309//458
f 303//459 329//459 304//459
f 315//460 344//460 313//460
f 320//461 337//461 307//461
f 301//462 330//462 303//462
f 316//463 345//463 315//463
f 324//464 338//464 320//464
f 308//465 331//465 301//465
f 317//466 346//466 316//466
f 323//467 339//467 324//467
f 312//468 332//468 308//468
f 318//469 347//469 317//469
f 302//470 325//470 314//470
f 322//471 340//471 323//471
f 311//472 333//472 312//472
f 314//473 348//473 318//473
f 306//474 326//474 302//474
f 321//475 341//475 322//475
f 306//476 302//476 301//476
f 302//477 314//477 307//477
f 314//478 318//478 313//478
f 318//479 317//479 313//479
f 317//480 316//480 313//480
f 316//481 315//481 313//481
f 313//482 319//482 314//482
f 319//483 321//483 322//483
f 322//484 323//484 319//484
f 323//485 324//485 319//485
f 324//486 320//486 319//486
f 320//487 307//487 314//487
f 307//488 309//488 308//488
f 309//489 310//489 308//489
f 310//490 311//490 308//490
f 311//491 312//491 308//491
f 308//492 301//492 307//492
f 301//493 303//493 304//493
f 304//494 305//494 301//494
f 305//495 306//495 301//495
f 302//496 307//496 301//496
f 325//497 326//497 337//497
f 326//498 327//498 331//498
f 337//499 326//499 331//499
f 327//500 328//500 331//500
f 328//501 329//501 331//501
f 329//502 330//502 331//502
f 331//503 332//503 337//503
f 332//504 333//504 334//504
f 337//505 332//505 336//505
f 334//506 335//506 332//506
f 335//507 336//507 332//507
f 337//508 338//508 325//508
f 338//509 339//509 343//509
f 325//510 338//510 343//510
f 339//511 340//511 343//511
f 340//512 341//512 343//512
f 341//513 342//513 343//513
f 343//514 344//514 325//514
f 344//515 345//515 346//515
f 325//516 344//516 348//516
f 346//517 347//517 344//517
f 310//518 335//518 334//518
f 305//519 328//519 327//519
f 319//520 343//520 342//520
f 309//521 336//521 335//521
f 304//522 329//522 328//522
f 313//523 344//523 343//523
f 307//524 337//524 336//524
f 303//525 330//525 329//525
f 315//526 345//526 344//526
f 320//527 338//527 337//527
f 301//528 331//528 330//528
f 316//529 346//529 345//529
f 324//530 339//530 338//530
f 308//531 332//531 331//531
f 317//532 347//532 346//532
f 323//533 340//533 339//533
f 312//534 333//534 332//534
f 318//535 348//535 347//535
f 302//536 326//536 325//536
f 322//537 341//537 340//537
f 311//538 334//538 333//538
f 314//539 325//539 348//539
f 306//540 327//540 326//540
f 321//541 342//541 341//541
# Vertices: 48, normals: 92, texture coordinates: 0, faces: 92

o obj6
v 0.00067727 -0.03768561 0.01787496
v 0.00067727 -0.00545203 0.01787496
v 0.02182338 -0.03768561 0.0220812
v 0.02182338 -0.00545203 0.0220812
v 0.03975026 -0.03768561 0.03405958
v 0.03975026 -0.00545203 0.03405958
v 0.05172864 -0.03768561 0.0519864
v 0.05172864 -0.00545203 0.0519864
v 0.05593488 -0.03768561 0.07313257
v 0.05593488 -0.00545203 0.07313257
v 0.05172864 -0.03768561 0.09427874
v 0.05172864 -0.00545203 0.09427874
v 0.03975026 -0.03768561 0.11220556
v 0.03975026 -0.00545203 0.11220556
v 0.02182344 -0.03768561 0.12418394
v 0.02182344 -0.00545203 0.12418394
v 0.00067727 -0.03768561 0.12839018
v 0.00067727 -0.00545203 0.12839018
v -0.02046884 -0.03768561 0.12418394
v -0.02046884 -0.00545203 0.12418394
v -0.03839572 -0.03768561 0.11220562
v -0.03839572 -0.00545203 0.11220562
v -0.0503741 -0.03768561 0.09427874
v -0.0503741 -0.00545203 0.09427874
v -0.05458034 -0.03768561 0.07313257
v -0.05458034 -0.00545203 0.07313257
v -0.0503741 -0.03768561 0.0519864
v -0.0503741 -0.00545203 0.0519864
v -0.03839572 -0.03768561 0.03405958
v -0.03839572 -0.00545203 0.03405958
v -0.02046884 -0.03768561 0.0220812
v -0.02046884 -0.00545203 0.0220812
vn 0.19509 0 -0.98079
vn 0.55557 0 -0.83147
vn 0.83147 0 -0.55557
vn 0.98079 0 -0.19509
vn 0.98079 0 0.19509
vn 0.83147 0 0.55557
vn 0.55557 0 0.83147
vn 0.19509 0 0.98079
vn -0.19509 0 0.98079
vn -0.55557 0 0.83147
vn -0.83147 0 0.55557
vn -0.98079 0 0.19509
vn -0.98079 -0 -0.19509
vn -0.83147 0 -0.55557
vn 0 1 0
vn -0.55557 0 -0.83147
vn -0.19509 0 -0.98079
vn 0 -1 0
vn 0.19509 0 -0.98079
vn 0.55557 0 -0.83147
vn 0.83147 0 -0.55557
vn 0.98079 0 -0.19509
vn 0.83147 0 0.55557
vn 0.55557 0 0.83147
vn 0.19509 0 0.98079
vn -0.19509 0 0.98079
vn -0.55557 0 0.83147
vn -0.83147 0 0.55557
vn -0.98079 0 0.19509
vn -0.98079 0 -0.19509
vn -0.83147 0 -0.55557
vn 0 1 -0
vn 0 1 -0
vn 0 1 -0
vn 0 1 -0
vn 0 1 0
vn 0 1 -0
vn -0.55557 0 -0.83147
vn 0 -1 0
vn 0 -1 0
vn 0 -1 0
vn -0 -1 0
vn 0 -1 0
usemtl mat1
f 349//542 352//542 351//542
f 352//543 353//543 351//543
f 354//544 355//544 353//544
f 356//545 357//545 355//545
f 358//546 359//546 357//546
f 360//547 361//547 359//547
f 362//548 363//548 361//548
f 364//549 365//549 363//549
f 366//550 367//550 365//550
f 368//551 369//551 367//551
f 370//552 371//552 369//552
f 371//553 374//553 373//553
f 374//554 375//554 373//554
f 375//555 378//555 377//555
f 354//556 378//556 370//556
f 377//557 380//557 379//557
f 380//558 349//558 379//558
f 355//559 363//559 371//559
f 349//560 350//560 352//560
f 352//561 354//561 353//561
f 354//562 356//562 355//562
f 356//563 358//563 357//563
f 358//546 360//546 359//546
f 360//564 362//564 361//564
f 362//565 364//565 363//565
f 364//566 366//566 365//566
f 366//567 368//567 367//567
f 368//568 370//568 369//568
f 370//569 372//569 371//569
f 371//570 372//570 374//570
f 374//571 376//571 375//571
f 375//572 376//572 378//572
f 354//573 352//573 350//573
f 350//556 380//556 378//556
f 378//556 376//556 370//556
f 376//556 374//556 370//556
f 374//574 372//574 370//574
f 370//575 368//575 366//575
f 366//576 364//576 362//576
f 362//577 360//577 358//577
f 358//578 356//578 354//578
f 354//556 350//556 378//556
f 370//556 366//556 354//556
f 366//556 362//556 354//556
f 362//556 358//556 354//556
f 377//579 378//579 380//579
f 380//558 350//558 349//558
f 379//580 349//580 351//580
f 351//581 353//581 379//581
f 353//559 355//559 379//559
f 355//582 357//582 363//582
f 357//583 359//583 363//583
f 359//580 361//580 363//580
f 363//559 365//559 371//559
f 365//584 367//584 371//584
f 367//559 369//559 371//559
f 371//582 373//582 379//582
f 373//583 375//583 379//583
f 375//580 377//580 379//580
f 379//559 355//559 371//559
# Vertices: 32, normals: 43, texture coordinates: 0, faces: 60

