# File generated by ImageToStl.com - Free Image and 3D model conversion tools

mtllib hazer.mtl

o obj1
v -0.2 -0.23 -0.51
v -0.2 0.1331071 0.51
v 0.2 -0.23 -0.51
v 0.2 0.1331071 0.51
v -0.2 -0.23 0.2335934
v -0.2 -0.2219239 0.258125
v -0.2 -0.2293852 0.2412248
v -0.2 -0.2276346 0.2485666
v -0.2 -0.2250145 0.2545012
v 0.2 -0.2219239 0.258125
v 0.2 -0.23 0.2335934
v 0.2 -0.2250145 0.2545012
v 0.2 -0.2276346 0.2485666
v 0.2 -0.2293852 0.2412248
v -0.2 0.1920145 -0.51
v -0.1669691 0.23 -0.51
v -0.1974856 0.2065508 -0.51
v -0.1903254 0.2188743 -0.51
v -0.1796094 0.2271085 -0.51
v -0.1669691 0.23 0.51
v -0.2 0.1920145 0.51
v -0.1796094 0.2271085 0.51
v -0.1903254 0.2188743 0.51
v -0.1974856 0.2065508 0.51
v 0.1669691 0.23 -0.51
v 0.2 0.1920145 -0.51
v 0.1796094 0.2271085 -0.51
v 0.1903254 0.2188743 -0.51
v 0.1974856 0.2065508 -0.51
v 0.2 0.1920145 0.51
v 0.1669691 0.23 0.51
v 0.1974856 0.2065508 0.51
v 0.1903254 0.2188743 0.51
v 0.1796094 0.2271085 0.51
v -0.1944397 0.1428756 0.51
v 0.1944397 0.1428756 0.51
v -0.1623271 0.2258839 0.51
v -0.1944397 0.1933416 0.51
v -0.174616 0.2234067 0.51
v -0.1850341 0.2163524 0.51
v -0.1919952 0.205795 0.51
v 0.1944397 0.1933416 0.51
v 0.1623271 0.2258839 0.51
v 0.1919952 0.205795 0.51
v 0.1850341 0.2163524 0.51
v 0.174616 0.2234067 0.51
v -0.1944397 0.1428756 0.1040976
v 0.1944397 0.1428756 0.1040976
v -0.1623271 0.2258839 0.1040976
v -0.1944397 0.1933416 0.1040976
v -0.174616 0.2234067 0.1040976
v -0.1850341 0.2163524 0.1040976
v -0.1919952 0.205795 0.1040976
v 0.1944397 0.1933416 0.1040976
v 0.1623271 0.2258839 0.1040976
v 0.1919952 0.205795 0.1040976
v 0.1850341 0.2163524 0.1040976
v 0.174616 0.2234067 0.1040976
vn 0 -1 0
vn 0 0 -1
vn -1 0 0
vn 1 0 0
vn 0 -0.76086 0.64891
vn 0 -0.91481 0.40388
vn 0 -0.97273 0.23195
vn 0 -0.99677 0.0803
vn 0 -0.57862 0.8156
vn -0.22299 0.97482 0
vn -0.6093 0.79294 0
vn -0.86465 0.50238 0
vn -0.98537 0.17044 0
vn 0.98537 0.17044 0
vn 0.86465 0.50238 0
vn 0.6093 0.79294 0
vn 0.22299 0.97482 0
vn 0 1 0
vn 0 0 1
vn -1E-05 0 1
vn 0 0 1
vn -1E-05 0 1
vn -1E-05 0 1
vn -1E-05 0 1
vn -0.56068 -0.82803 0
vn 0.98127 -0.19261 0
vn 0.1976 -0.98028 0
vn -0.1976 -0.98028 0
vn -0.98127 -0.19261 0
vn 0.56068 -0.82803 0
vn -0.83486 -0.55047 0
vn 0.83486 -0.55047 0
vn 0 0 -1
vn -1E-05 0 -1
vn 1E-05 0 -1
vn -1 -0 0
vn 1 -0 0
vn 0 -0.76087 0.64891
vn 0 -0.97273 0.23194
vn 0 -0.99677 0.08029
vn -0.86465 0.50238 0
vn 0.86465 0.50238 0
vn 1E-05 0 1
vn 1E-05 0 1
vn 1E-05 0 1
vn 1E-05 0 1
vn -0 0 1
vn -0.56068 -0.82803 0
vn 0.98127 -0.19261 0
vn 0.1976 -0.98028 0
vn -0.1976 -0.98028 0
vn -0.98127 -0.19261 0
vn 0.56068 -0.82803 0
vn -0.83486 -0.55047 0
vn 0.83486 -0.55047 0
vn 0 0 1
vn -0 0 1
vn -0 0 1
vn 0 0 1
vn -0 0 1
usemtl mat0
f 11//1 1//1 3//1
f 26//2 15//2 25//2
f 2//3 21//3 5//3
f 26//4 30//4 11//4
f 6//5 12//5 10//5
f 9//6 13//6 12//6
f 8//7 14//7 13//7
f 7//8 11//8 14//8
f 4//9 6//9 10//9
f 16//10 22//10 20//10
f 19//11 23//11 22//11
f 18//12 24//12 23//12
f 17//13 21//13 24//13
f 26//14 32//14 30//14
f 29//15 33//15 32//15
f 28//16 34//16 33//16
f 27//17 31//17 34//17
f 20//18 25//18 16//18
f 30//19 4//19 4//19
f 23//19 22//19 22//19
f 2//19 21//19 21//19
f 4//19 2//19 2//19
f 31//19 34//19 34//19
f 32//19 30//19 30//19
f 34//19 33//19 33//19
f 20//19 31//19 31//19
f 21//19 24//19 24//19
f 33//19 32//19 32//19
f 22//19 20//19 20//19
f 24//19 23//19 23//19
f 33//20 44//20 32//20
f 23//19 41//19 40//19
f 21//19 35//19 38//19
f 4//19 35//19 2//19
f 34//21 45//21 33//21
f 24//22 38//22 41//22
f 30//19 36//19 4//19
f 20//19 39//19 37//19
f 31//19 46//19 34//19
f 32//23 42//23 30//23
f 22//24 40//24 39//24
f 20//19 43//19 31//19
f 38//19 41//19 41//19
f 42//19 36//19 36//19
f 39//19 37//19 37//19
f 43//19 46//19 46//19
f 44//19 42//19 42//19
f 40//19 39//19 39//19
f 37//19 43//19 43//19
f 45//19 44//19 44//19
f 41//19 40//19 40//19
f 35//19 38//19 38//19
f 36//19 35//19 35//19
f 46//19 45//19 45//19
f 46//25 57//25 45//25
f 38//26 53//26 41//26
f 42//3 48//3 36//3
f 39//27 49//27 37//27
f 43//28 58//28 46//28
f 44//29 54//29 42//29
f 40//30 51//30 39//30
f 37//1 55//1 43//1
f 45//31 56//31 44//31
f 41//32 52//32 40//32
f 35//4 50//4 38//4
f 36//18 47//18 35//18
f 53//19 50//19 49//19
f 11//1 5//1 1//1
f 1//2 15//2 26//2
f 15//33 17//33 16//33
f 16//2 17//2 18//2
f 18//34 19//34 16//34
f 16//2 25//2 15//2
f 25//35 27//35 28//35
f 28//2 29//2 25//2
f 29//2 26//2 25//2
f 26//2 3//2 1//2
f 1//3 5//3 15//3
f 5//3 7//3 6//3
f 15//3 5//3 21//3
f 7//3 8//3 6//3
f 8//3 9//3 6//3
f 6//36 2//36 5//36
f 30//4 4//4 11//4
f 4//37 10//37 11//37
f 10//4 12//4 13//4
f 13//4 14//4 10//4
f 14//4 11//4 10//4
f 11//4 3//4 26//4
f 6//38 9//38 12//38
f 9//6 8//6 13//6
f 8//39 7//39 14//39
f 7//40 5//40 11//40
f 4//9 2//9 6//9
f 16//10 19//10 22//10
f 19//11 18//11 23//11
f 18//41 17//41 24//41
f 17//13 15//13 21//13
f 26//14 29//14 32//14
f 29//42 28//42 33//42
f 28//16 27//16 34//16
f 27//17 25//17 31//17
f 20//18 31//18 25//18
f 30//19 30//19 4//19
f 23//19 23//19 22//19
f 2//19 2//19 21//19
f 4//19 4//19 2//19
f 31//19 31//19 34//19
f 32//19 32//19 30//19
f 34//19 34//19 33//19
f 20//19 20//19 31//19
f 21//19 21//19 24//19
f 33//19 33//19 32//19
f 22//19 22//19 20//19
f 24//19 24//19 23//19
f 33//19 45//19 44//19
f 23//43 24//43 41//43
f 21//19 2//19 35//19
f 4//19 36//19 35//19
f 34//44 46//44 45//44
f 24//45 21//45 38//45
f 30//19 42//19 36//19
f 20//19 22//19 39//19
f 31//19 43//19 46//19
f 32//46 44//46 42//46
f 22//47 23//47 40//47
f 20//19 37//19 43//19
f 38//19 38//19 41//19
f 42//19 42//19 36//19
f 39//19 39//19 37//19
f 43//19 43//19 46//19
f 44//19 44//19 42//19
f 40//19 40//19 39//19
f 37//19 37//19 43//19
f 45//19 45//19 44//19
f 41//19 41//19 40//19
f 35//19 35//19 38//19
f 36//19 36//19 35//19
f 46//19 46//19 45//19
f 46//48 58//48 57//48
f 38//49 50//49 53//49
f 42//3 54//3 48//3
f 39//50 51//50 49//50
f 43//51 55//51 58//51
f 44//52 56//52 54//52
f 40//53 52//53 51//53
f 37//1 49//1 55//1
f 45//54 57//54 56//54
f 41//55 53//55 52//55
f 35//4 47//4 50//4
f 36//18 48//18 47//18
f 47//19 48//19 55//19
f 48//56 54//56 55//56
f 54//19 56//19 55//19
f 56//57 57//57 55//57
f 57//58 58//58 55//58
f 55//19 49//19 47//19
f 49//59 51//59 52//59
f 47//60 49//60 50//60
f 52//19 53//19 49//19
# Vertices: 58, normals: 60, texture coordinates: 0, faces: 160

o obj2
v -0.0300638 0.22770919 -0.1631396
v -0.0300638 0.22770919 0.1631396
v -0.0300638 0.32770921 -0.1631396
v -0.0300638 0.32770921 0.1631396
v 0.0300638 0.22770919 -0.1631396
v 0.0300638 0.22770919 0.1631396
v 0.0300638 0.32770921 -0.1631396
v 0.0300638 0.32770921 0.1631396
v -0.0300638 0.22770919 0.1223547
v 0.0300638 0.22770919 0.1223547
v 0.0300638 0.22770919 -0.1272489
v -0.0300638 0.22770919 -0.1272489
v 0.0300638 0.30514819 0.1223547
v -0.0300638 0.30514819 0.1223547
v -0.0300638 0.30514819 -0.1272489
v 0.0300638 0.30514819 -0.1272489
vn -1 -0 0
vn 0 -1 0
vn 1 0 0
vn 0 0 -1
vn 0 0 1
vn 0 1 0
vn -1 0 0
vn -1 0 0
vn 1 0 0
vn 1 -0 0
usemtl mat1
f 72//61 62//61 61//61
f 64//62 67//62 68//62
f 71//63 74//63 65//63
f 65//64 59//64 61//64
f 71//62 73//62 74//62
f 70//65 74//65 73//65
f 69//62 59//62 63//62
f 62//66 65//66 61//66
f 67//64 71//64 68//64
f 62//65 64//65 66//65
f 61//67 59//67 73//67
f 59//67 70//67 73//67
f 67//67 60//67 72//67
f 60//67 62//67 72//67
f 61//68 73//68 72//68
f 64//62 60//62 67//62
f 66//69 64//69 71//69
f 64//69 68//69 71//69
f 69//69 63//69 74//69
f 63//69 65//69 74//69
f 66//70 71//70 65//70
f 65//64 63//64 59//64
f 71//62 72//62 73//62
f 70//65 69//65 74//65
f 69//62 70//62 59//62
f 62//66 66//66 65//66
f 67//64 72//64 71//64
f 62//65 60//65 64//65
# Vertices: 16, normals: 10, texture coordinates: 0, faces: 28

