# File generated by ImageToStl.com - Free Image and 3D model conversion tools

mtllib strobe.mtl

o obj1
v 0.5403003 0.1746822 0.00426966
v 0.5403002 -0.1222365 -0.3470695
v -0.5403001 0.1746819 0.00427014
v -0.5403001 -0.1222367 -0.3470691
v 0.5403003 0.1288554 0.04299819
v 0.5403002 -0.1680634 -0.308341
v -0.5403001 0.1288551 0.04299867
v -0.5403001 -0.1680636 -0.3083406
v -0.5047947 0.174682 0.00427014
v 0.5047949 0.1746822 0.00426972
v 0.5403003 0.1322652 -0.04592162
v 0.5403003 0.08984827 -0.0961129
v 0.5403003 0.04743129 -0.1463043
v 0.5403002 0.00501436 -0.1964955
v 0.5403002 -0.03740251 -0.2466869
v 0.5403002 -0.0798195 -0.2968782
v 0.3859288 -0.1222365 -0.3470695
v 0.2315572 -0.1222366 -0.3470694
v 0.07718569 -0.1222366 -0.3470693
v -0.07718575 -0.1222366 -0.3470693
v -0.2315572 -0.1222367 -0.3470692
v -0.3859287 -0.1222367 -0.3470692
v -0.5403001 -0.07981979 -0.2968778
v -0.5403001 -0.0374028 -0.2466864
v -0.5403001 0.00501412 -0.1964951
v -0.5403001 0.04743105 -0.1463038
v -0.5403001 0.08984798 -0.09611243
v -0.5403001 0.132265 -0.04592114
v -0.5403001 0.1354017 0.03746604
v -0.5403001 0.1419485 0.03193336
v -0.5403001 0.1484951 0.02640074
v -0.5403001 0.1550418 0.02086812
v -0.5403001 0.1615886 0.01533544
v -0.5403001 0.1681352 0.00980282
v -0.5403001 -0.1287834 -0.3415364
v -0.5403001 -0.1353301 -0.3360038
v -0.5403001 -0.1418768 -0.3304712
v -0.5403001 -0.1484235 -0.3249385
v -0.5403001 -0.1549702 -0.3194059
v -0.5403001 -0.1615169 -0.3138732
v -0.5403001 -0.1256467 -0.2581492
v -0.5403001 -0.08322966 -0.2079579
v -0.5403001 -0.04081273 -0.1577666
v -0.5403001 0.0016042 -0.1075752
v -0.5403001 0.04402112 -0.05738395
v -0.5403001 0.08643811 -0.00719261
v 0.5047949 0.1288554 0.04299825
v -0.5047947 0.1288551 0.04299867
v -0.3859287 -0.1680635 -0.3083406
v -0.2315572 -0.1680635 -0.3083407
v -0.07718569 -0.1680635 -0.3083407
v 0.07718575 -0.1680634 -0.3083409
v 0.2315572 -0.1680634 -0.3083409
v 0.3859288 -0.1680634 -0.308341
v 0.5403002 -0.1256464 -0.2581497
v 0.5403002 -0.08322942 -0.2079584
v 0.5403002 -0.04081243 -0.1577671
v 0.5403003 0.00160444 -0.1075757
v 0.5403003 0.04402142 -0.05738437
v 0.5403003 0.08643835 -0.00719309
v 0.5403003 0.1681355 0.00980234
v 0.5403003 0.1615888 0.01533496
v 0.5403003 0.1550421 0.02086764
v 0.5403003 0.1484954 0.02640026
v 0.5403003 0.1419487 0.03193289
v 0.5403003 0.135402 0.03746557
v 0.5403002 -0.1615167 -0.3138737
v 0.5403002 -0.1549699 -0.3194063
v 0.5403002 -0.1484233 -0.324939
v 0.5403002 -0.1418765 -0.3304716
v 0.5403002 -0.1353299 -0.3360043
v 0.5403002 -0.1287832 -0.3415369
v -0.3859287 -0.1615169 -0.3138733
v -0.2315572 -0.1615169 -0.3138734
v -0.07718569 -0.1615168 -0.3138734
v 0.07718575 -0.1615167 -0.3138735
v 0.2315572 -0.1615167 -0.3138735
v 0.3859288 -0.1615167 -0.3138736
v -0.3859287 -0.1549702 -0.3194059
v -0.2315572 -0.1549701 -0.319406
v -0.07718569 -0.1549701 -0.3194061
v 0.07718575 -0.1549701 -0.3194062
v 0.2315572 -0.15497 -0.3194062
v 0.3859288 -0.15497 -0.3194063
v -0.3859287 -0.1484235 -0.3249386
v -0.2315572 -0.1484234 -0.3249387
v -0.07718575 -0.1484234 -0.3249387
v 0.07718569 -0.1484234 -0.3249388
v 0.2315572 -0.1484233 -0.3249388
v 0.3859288 -0.1484233 -0.3249389
v -0.3859287 -0.1418768 -0.3304712
v -0.2315572 -0.1418768 -0.3304713
v -0.07718575 -0.1418767 -0.3304713
v 0.07718569 -0.1418766 -0.3304714
v 0.2315572 -0.1418766 -0.3304715
v 0.3859288 -0.1418766 -0.3304716
v -0.3859287 -0.1353301 -0.3360038
v -0.2315572 -0.13533 -0.3360039
v -0.07718575 -0.13533 -0.336004
v 0.07718569 -0.13533 -0.3360041
v 0.2315572 -0.13533 -0.3360041
v 0.3859288 -0.1353299 -0.3360042
v -0.3859287 -0.1287834 -0.3415365
v -0.2315572 -0.1287834 -0.3415365
v -0.07718575 -0.1287834 -0.3415367
v 0.07718569 -0.1287833 -0.3415368
v 0.2315572 -0.1287832 -0.3415368
v 0.3859288 -0.1287832 -0.3415369
v 0.5403003 0.09298509 -0.01272571
v 0.5403003 0.09953176 -0.01825839
v 0.5403003 0.1060785 -0.02379101
v 0.5403003 0.1126251 -0.02932363
v 0.5403003 0.1191719 -0.03485631
v 0.5403003 0.1257185 -0.04038894
v 0.5403003 0.0505681 -0.06291705
v 0.5403003 0.05711483 -0.06844967
v 0.5403003 0.06366151 -0.07398235
v 0.5403003 0.07020819 -0.07951498
v 0.5403003 0.07675492 -0.08504766
v 0.5403003 0.0833016 -0.09058028
v 0.5403003 0.00815117 -0.1131083
v 0.5403003 0.01469784 -0.118641
v 0.5403003 0.02124452 -0.1241737
v 0.5403003 0.02779126 -0.1297063
v 0.5403003 0.03433793 -0.135239
v 0.5403003 0.04088461 -0.1407716
v 0.5403002 -0.03426575 -0.1632997
v 0.5403002 -0.02771908 -0.1688323
v 0.5403002 -0.0211724 -0.1743649
v 0.5403002 -0.01462566 -0.1798976
v 0.5403002 -0.00807899 -0.1854302
v 0.5403002 -0.00153232 -0.1909629
v 0.5403002 -0.07668268 -0.213491
v 0.5403002 -0.07013601 -0.2190237
v 0.5403002 -0.06358933 -0.2245563
v 0.5403002 -0.05704265 -0.230089
v 0.5403002 -0.05049592 -0.2356216
v 0.5403002 -0.04394924 -0.2411543
v 0.5403002 -0.1190997 -0.2636824
v 0.5403002 -0.112553 -0.269215
v 0.5403002 -0.1060063 -0.2747477
v 0.5403002 -0.09945958 -0.2802803
v 0.5403002 -0.09291285 -0.285813
v 0.5403002 -0.08636617 -0.2913456
v -0.5047947 0.08643811 -0.00719261
v 0.5047949 0.08643835 -0.00719303
v -0.5047947 0.04402112 -0.05738395
v 0.5047949 0.04402142 -0.05738437
v -0.5047947 0.0016042 -0.1075752
v 0.5047949 0.00160444 -0.1075757
v -0.5047947 -0.04081273 -0.1577666
v 0.5047948 -0.04081249 -0.157767
v -0.5047947 -0.08322966 -0.2079579
v 0.5047948 -0.08322942 -0.2079584
v -0.5047947 -0.1534057 -0.2909961
v -0.2315572 -0.1534057 -0.2909963
v -0.07718569 -0.1534056 -0.2909963
v 0.07718575 -0.1534056 -0.2909964
v 0.2315572 -0.1534056 -0.2909965
v 0.5047948 -0.1534055 -0.2909966
v -0.5403001 0.1257182 -0.04038846
v -0.5403001 0.1191716 -0.03485584
v -0.5403001 0.1126249 -0.02932316
v -0.5403001 0.1060782 -0.02379053
v -0.5403001 0.09953147 -0.01825791
v -0.5403001 0.09298479 -0.01272523
v -0.5403001 0.0833013 -0.0905798
v -0.5403001 0.07675462 -0.08504718
v -0.5403001 0.07020789 -0.0795145
v -0.5403001 0.06366121 -0.07398188
v -0.5403001 0.05711454 -0.06844919
v -0.5403001 0.05056786 -0.06291657
v -0.5403001 0.04088431 -0.1407711
v -0.5403001 0.03433763 -0.1352385
v -0.5403001 0.02779096 -0.1297058
v -0.5403001 0.02124428 -0.1241732
v -0.5403001 0.01469755 -0.1186406
v -0.5403001 0.00815088 -0.1131079
v -0.5403001 -0.00153255 -0.1909624
v -0.5403001 -0.00807923 -0.1854298
v -0.5403001 -0.01462596 -0.1798971
v -0.5403001 -0.02117264 -0.1743645
v -0.5403001 -0.02771931 -0.1688319
v -0.5403001 -0.03426605 -0.1632992
v -0.5403001 -0.04394954 -0.2411537
v -0.5403001 -0.05049622 -0.2356211
v -0.5403001 -0.05704289 -0.2300885
v -0.5403001 -0.06358957 -0.2245558
v -0.5403001 -0.0701363 -0.2190232
v -0.5403001 -0.07668298 -0.2134905
v -0.5403001 -0.08636647 -0.2913451
v -0.5403001 -0.09291315 -0.2858125
v -0.5403001 -0.09945988 -0.2802798
v -0.5403001 -0.1060066 -0.2747472
v -0.5403001 -0.1125532 -0.2692145
v -0.5403001 -0.1190999 -0.2636819
v 0.5047949 0.1322652 -0.04592156
v -0.5047947 0.132265 -0.04592114
v 0.5047949 0.08984827 -0.0961129
v -0.5047947 0.08984804 -0.09611248
v 0.5047949 0.04743129 -0.1463043
v -0.5047947 0.04743105 -0.1463038
v 0.5047948 0.00501436 -0.1964955
v -0.5047947 0.00501412 -0.1964951
v 0.5047948 -0.03740257 -0.2466869
v -0.5047947 -0.0374028 -0.2466864
v 0.5047948 -0.1075786 -0.3297251
v 0.2315572 -0.1075787 -0.329725
v 0.07718569 -0.1075787 -0.3297249
v -0.07718575 -0.1075788 -0.3297249
v -0.2315572 -0.1075788 -0.3297248
v -0.5047947 -0.1075789 -0.3297247
vn -0 0.76378 -0.64548
vn -1 0 0
vn 0 -0.76378 0.64548
vn 1 0 0
vn -0 -0.64547 -0.76378
vn -0 -0.64548 -0.76378
vn -0 -0.64548 -0.76378
vn 0 -0.64547 -0.76378
vn 0 -0.64548 -0.76378
vn -0 -0.64548 -0.76378
vn -0 -0.64548 -0.76378
vn 0 -0.64548 -0.76378
vn -0 -0.64548 -0.76378
vn -0 -0.64547 -0.76378
vn -0 -0.64547 -0.76378
vn -0 -0.64548 -0.76378
vn -0 -0.64547 -0.76378
vn 0 -0.64548 -0.76378
vn -0 -0.64548 -0.76378
vn -0 -0.64548 -0.76378
vn -0 -0.64548 -0.76378
vn -0 -0.64548 -0.76378
vn 0 -0.64548 -0.76378
vn -0 -0.64547 -0.76378
vn 0 -0.64547 -0.76378
vn -0 -0.64548 -0.76378
vn -0 -0.64547 -0.76378
vn -0 -0.64548 -0.76378
vn 0 -0.64547 -0.76378
vn -0 -0.64547 -0.76378
vn -0 -0.64548 -0.76378
vn -0 -0.64548 -0.76378
vn -0 -0.64547 -0.76378
vn -0 -0.64548 -0.76378
vn -0 -0.64548 -0.76378
vn -0 -0.64548 -0.76378
vn -0 -0.64547 -0.76379
vn -0 -0.64547 -0.76379
vn 0 -0.64547 -0.76379
vn -0 -0.64547 -0.76378
vn -0 0.64548 0.76378
vn 0 0.64548 0.76378
vn 1 -0 -0
vn 1 -0 -0
vn 1 -0 -0
vn 1 -0 -0
vn 1 -0 -0
vn 0 -0.76378 0.64548
vn 0 -0.76378 0.64548
vn 0 -0.76378 0.64548
vn 0 -0.76378 0.64548
vn 0 -0.76378 0.64548
vn 0 -0.76378 0.64548
vn 0 -0.76378 0.64548
vn 0 -0.76378 0.64548
vn 0 -0.76378 0.64548
vn 0 -0.76378 0.64548
vn 0 -0.76378 0.64548
vn 0 -0.76378 0.64548
vn 0 -0.76378 0.64547
vn 0 -0.76378 0.64547
vn 0 -0.76378 0.64547
vn 0 -0.76378 0.64547
vn 0 -0.76378 0.64547
vn -1 0 0
vn -1 0 0
vn -1 0 0
vn -1 0 0
vn -1 0 0
vn -0 0.76378 -0.64548
vn 0 0.76378 -0.64548
vn -0 0.76378 -0.64548
vn -0 0.76378 -0.64548
vn 0 0.76378 -0.64548
vn -0 0.76378 -0.64548
vn -0 0.76378 -0.64548
vn -0 0.76378 -0.64548
vn -0 0.76378 -0.64548
vn -0 0.76378 -0.64548
vn -0 0.76378 -0.64548
vn -0 0.76378 -0.64548
vn -0 0.76378 -0.64548
vn -0 0.76378 -0.64547
vn -0 0.76378 -0.64547
vn -0 0.76378 -0.64548
vn -0 0.76378 -0.64548
vn 0 0.64548 0.76378
vn 0 -0.76378 0.64548
vn 0 -0.76378 0.64548
vn -0 0.76378 -0.64548
vn -0 0.76378 -0.64548
vn -0 0.76378 -0.64548
vn 0 -0.76378 0.64547
vn -0 -0.64547 -0.76378
vn -0 -0.64547 -0.76378
vn 0 -0.64547 -0.76378
vn -0 -0.64548 -0.76378
vn -0 -0.64548 -0.76378
vn -0 -0.64548 -0.76378
vn -0 -0.64548 -0.76378
vn -0 -0.64548 -0.76378
vn -0 -0.64547 -0.76378
vn 0 -0.64548 -0.76378
vn 0 -0.64547 -0.76378
vn -0 -0.64547 -0.76378
vn -0 -0.64548 -0.76378
vn -0 -0.64548 -0.76378
vn -0 -0.64547 -0.76378
vn 0 -0.64547 -0.76378
vn -0 -0.64548 -0.76378
vn -0 -0.64548 -0.76378
vn -0 -0.64548 -0.76378
vn -0 -0.64547 -0.76378
vn -0 -0.64547 -0.76378
vn 0 -0.64547 -0.76378
vn -0 -0.64547 -0.76378
vn -0 -0.64547 -0.76378
vn -0 -0.64547 -0.76378
vn 0 0.64548 0.76378
vn 0 0.64548 0.76378
vn -0 0.64548 0.76378
vn -0 0.64548 0.76378
vn -0 0.64547 0.76378
vn 0 0.64548 0.76378
vn 0 0.64548 0.76378
vn 0 0.64548 0.76378
vn -0 0.64547 0.76378
vn 0 0.64548 0.76378
vn 0 0.64548 0.76378
vn 0 0.64548 0.76378
vn 0 0.64548 0.76378
vn 1 -0 -0
vn 1 -0 -0
vn 1 -0 -0
vn 0 -0.76378 0.64548
vn 0 -0.76378 0.64548
vn 0 -0.76378 0.64548
vn 0 -0.76378 0.64548
vn 0 -0.76378 0.64548
vn 0 -0.76378 0.64548
vn 0 -0.76378 0.64548
vn 0 -0.76378 0.64548
vn 0 -0.76378 0.64548
vn 0 -0.76378 0.64548
vn 0 -0.76378 0.64548
vn 0 -0.76378 0.64548
vn 0 -0.76378 0.64548
vn 0 -0.76378 0.64547
vn 0 -0.76378 0.64547
vn -1 0 0
vn -0 0.76378 -0.64548
vn -0 0.76378 -0.64548
vn -0 0.76378 -0.64548
vn 0 0.76378 -0.64548
vn -0 0.76378 -0.64548
vn -0 0.76378 -0.64548
vn -0 0.76378 -0.64548
vn -0 0.76378 -0.64548
vn -0 0.76378 -0.64548
vn -0 0.76378 -0.64548
vn -0 0.76378 -0.64548
vn -0 0.76378 -0.64548
vn -0 0.76378 -0.64548
vn -0 0.76378 -0.64548
vn 0 0.64548 0.76378
vn 0 0.64548 0.76378
vn 0 0.64548 0.76378
vn 0 0.64548 0.76378
vn 0 0.64548 0.76378
vn 0 0.64548 0.76378
vn 0 0.64548 0.76378
usemtl mat1
f 212//1 4//1 23//1
f 196//2 8//2 41//2
f 160//3 6//3 55//3
f 144//4 2//4 16//4
f 17//5 72//5 108//5
f 78//6 6//6 54//6
f 84//7 67//7 78//7
f 90//8 68//8 84//8
f 96//7 69//7 90//7
f 102//9 70//9 96//9
f 108//10 71//10 102//10
f 40//11 49//11 8//11
f 73//12 50//12 49//12
f 74//13 51//13 50//13
f 51//14 76//14 52//14
f 76//15 53//15 52//15
f 77//8 54//8 53//8
f 39//16 73//16 40//16
f 73//17 80//17 74//17
f 74//18 81//18 75//18
f 81//19 76//19 75//19
f 82//20 77//20 76//20
f 77//21 84//21 78//21
f 38//22 79//22 39//22
f 85//23 80//23 79//23
f 80//24 87//24 81//24
f 87//8 82//8 81//8
f 88//25 83//25 82//25
f 89//26 84//26 83//26
f 37//27 85//27 38//27
f 91//15 86//15 85//15
f 92//28 87//28 86//28
f 93//29 88//29 87//29
f 94//28 89//28 88//28
f 95//30 90//30 89//30
f 36//31 91//31 37//31
f 97//16 92//16 91//16
f 98//29 93//29 92//29
f 93//32 100//32 94//32
f 100//9 95//9 94//9
f 101//26 96//26 95//26
f 35//33 97//33 36//33
f 97//8 104//8 98//8
f 98//34 105//34 99//34
f 105//23 100//23 99//23
f 106//35 101//35 100//35
f 101//32 108//32 102//32
f 4//36 103//36 35//36
f 22//28 104//28 103//28
f 104//37 20//37 105//37
f 20//38 106//38 105//38
f 19//39 107//39 106//39
f 18//40 108//40 107//40
f 32//41 31//41 48//41
f 47//42 64//42 63//42
f 114//4 1//4 61//4
f 114//4 12//4 11//4
f 120//4 13//4 12//4
f 132//43 13//43 126//43
f 132//4 15//4 14//4
f 138//4 16//4 15//4
f 60//4 66//4 5//4
f 109//4 65//4 66//4
f 110//4 64//4 65//4
f 111//4 63//4 64//4
f 63//4 113//4 62//4
f 62//4 114//4 61//4
f 59//4 109//4 60//4
f 109//4 116//4 110//4
f 116//4 111//4 110//4
f 117//4 112//4 111//4
f 112//4 119//4 113//4
f 119//4 114//4 113//4
f 59//4 121//4 115//4
f 121//4 116//4 115//4
f 116//4 123//4 117//4
f 123//4 118//4 117//4
f 124//4 119//4 118//4
f 119//4 126//4 120//4
f 58//44 127//44 121//44
f 127//45 122//45 121//45
f 122//46 129//46 123//46
f 129//47 124//47 123//47
f 124//47 131//47 125//47
f 125//44 132//44 126//44
f 57//4 133//4 127//4
f 127//4 134//4 128//4
f 134//4 129//4 128//4
f 135//4 130//4 129//4
f 130//4 137//4 131//4
f 137//4 132//4 131//4
f 56//4 139//4 133//4
f 139//4 134//4 133//4
f 140//4 135//4 134//4
f 141//4 136//4 135//4
f 142//4 137//4 136//4
f 137//4 144//4 138//4
f 55//4 67//4 139//4
f 139//4 68//4 140//4
f 68//4 141//4 140//4
f 141//4 70//4 142//4
f 70//4 143//4 142//4
f 143//4 72//4 144//4
f 146//48 5//48 47//48
f 148//49 60//49 146//49
f 150//50 59//50 148//50
f 150//51 57//51 58//51
f 154//52 57//52 152//52
f 154//53 55//53 56//53
f 46//54 48//54 7//54
f 45//55 145//55 46//55
f 44//56 147//56 45//56
f 44//57 151//57 149//57
f 42//58 151//58 43//58
f 41//59 153//59 42//59
f 49//60 156//60 155//60
f 156//61 51//61 157//61
f 51//62 158//62 157//62
f 52//63 159//63 158//63
f 159//64 54//64 160//64
f 29//2 46//2 7//2
f 172//2 46//2 166//2
f 178//2 45//2 172//2
f 178//65 43//65 44//65
f 190//2 43//2 184//2
f 196//2 42//2 190//2
f 3//2 161//2 34//2
f 161//2 33//2 34//2
f 162//2 32//2 33//2
f 32//2 164//2 31//2
f 164//2 30//2 31//2
f 165//2 29//2 30//2
f 28//2 167//2 161//2
f 167//2 162//2 161//2
f 168//2 163//2 162//2
f 163//2 170//2 164//2
f 170//2 165//2 164//2
f 165//2 172//2 166//2
f 26//2 167//2 27//2
f 173//2 168//2 167//2
f 168//2 175//2 169//2
f 175//2 170//2 169//2
f 176//2 171//2 170//2
f 171//2 178//2 172//2
f 25//66 173//66 26//66
f 173//67 180//67 174//67
f 174//65 181//65 175//65
f 175//68 182//68 176//68
f 182//69 177//69 176//69
f 183//68 178//68 177//68
f 24//2 179//2 25//2
f 185//2 180//2 179//2
f 186//2 181//2 180//2
f 181//2 188//2 182//2
f 188//2 183//2 182//2
f 183//2 190//2 184//2
f 24//2 191//2 185//2
f 191//2 186//2 185//2
f 192//2 187//2 186//2
f 187//2 194//2 188//2
f 194//2 189//2 188//2
f 189//2 196//2 190//2
f 23//2 35//2 191//2
f 35//2 192//2 191//2
f 36//2 193//2 192//2
f 193//2 38//2 194//2
f 194//2 39//2 195//2
f 195//2 40//2 196//2
f 198//70 3//70 9//70
f 198//71 27//71 28//71
f 200//72 26//72 27//72
f 204//73 26//73 202//73
f 204//74 24//74 25//74
f 206//75 23//75 24//75
f 1//76 197//76 10//76
f 11//77 199//77 197//77
f 12//78 201//78 199//78
f 14//79 201//79 13//79
f 15//80 203//80 14//80
f 16//81 205//81 15//81
f 17//82 208//82 207//82
f 208//83 19//83 209//83
f 19//84 210//84 209//84
f 20//85 211//85 210//85
f 211//86 22//86 212//86
f 160//87 207//87 208//87
f 150//2 148//2 199//2
f 204//47 202//47 151//47
f 49//88 155//88 8//88
f 41//89 8//89 155//89
f 17//90 207//90 2//90
f 2//91 207//91 16//91
f 212//92 22//92 4//92
f 196//2 40//2 8//2
f 160//93 54//93 6//93
f 144//4 72//4 2//4
f 17//94 2//94 72//94
f 78//95 67//95 6//95
f 84//96 68//96 67//96
f 90//97 69//97 68//97
f 96//96 70//96 69//96
f 102//98 71//98 70//98
f 108//30 72//30 71//30
f 40//11 73//11 49//11
f 73//99 74//99 50//99
f 74//23 75//23 51//23
f 51//100 75//100 76//100
f 76//15 77//15 53//15
f 77//101 78//101 54//101
f 39//16 79//16 73//16
f 73//9 79//9 80//9
f 74//102 80//102 81//102
f 81//103 82//103 76//103
f 82//104 83//104 77//104
f 77//105 83//105 84//105
f 38//106 85//106 79//106
f 85//107 86//107 80//107
f 80//107 86//107 87//107
f 87//8 88//8 82//8
f 88//99 89//99 83//99
f 89//108 90//108 84//108
f 37//15 91//15 85//15
f 91//16 92//16 86//16
f 92//29 93//29 87//29
f 93//16 94//16 88//16
f 94//109 95//109 89//109
f 95//110 96//110 90//110
f 36//111 97//111 91//111
f 97//29 98//29 92//29
f 98//112 99//112 93//112
f 93//103 99//103 100//103
f 100//35 101//35 95//35
f 101//16 102//16 96//16
f 35//113 103//113 97//113
f 97//30 103//30 104//30
f 98//114 104//114 105//114
f 105//13 106//13 100//13
f 106//115 107//115 101//115
f 101//116 107//116 108//116
f 4//9 22//9 103//9
f 22//28 21//28 104//28
f 104//9 21//9 20//9
f 20//38 19//38 106//38
f 19//117 18//117 107//117
f 18//118 17//118 108//118
f 29//119 7//119 48//119
f 48//120 9//120 32//120
f 9//121 3//121 34//121
f 9//122 34//122 33//122
f 30//123 29//123 48//123
f 31//124 30//124 48//124
f 9//122 33//122 32//122
f 1//125 10//125 61//125
f 10//126 47//126 63//126
f 61//127 10//127 62//127
f 47//128 5//128 66//128
f 47//129 66//129 65//129
f 62//130 10//130 63//130
f 47//131 65//131 64//131
f 114//4 11//4 1//4
f 114//4 120//4 12//4
f 120//4 126//4 13//4
f 132//132 14//132 13//132
f 132//4 138//4 15//4
f 138//4 144//4 16//4
f 60//4 109//4 66//4
f 109//4 110//4 65//4
f 110//4 111//4 64//4
f 111//4 112//4 63//4
f 63//4 112//4 113//4
f 62//4 113//4 114//4
f 59//4 115//4 109//4
f 109//4 115//4 116//4
f 116//4 117//4 111//4
f 117//4 118//4 112//4
f 112//4 118//4 119//4
f 119//4 120//4 114//4
f 59//4 58//4 121//4
f 121//4 122//4 116//4
f 116//4 122//4 123//4
f 123//4 124//4 118//4
f 124//4 125//4 119//4
f 119//4 125//4 126//4
f 58//133 57//133 127//133
f 127//134 128//134 122//134
f 122//47 128//47 129//47
f 129//43 130//43 124//43
f 124//44 130//44 131//44
f 125//47 131//47 132//47
f 57//4 56//4 133//4
f 127//4 133//4 134//4
f 134//4 135//4 129//4
f 135//4 136//4 130//4
f 130//4 136//4 137//4
f 137//4 138//4 132//4
f 56//4 55//4 139//4
f 139//4 140//4 134//4
f 140//4 141//4 135//4
f 141//4 142//4 136//4
f 142//4 143//4 137//4
f 137//4 143//4 144//4
f 55//4 6//4 67//4
f 139//4 67//4 68//4
f 68//4 69//4 141//4
f 141//4 69//4 70//4
f 70//4 71//4 143//4
f 143//4 71//4 72//4
f 146//135 60//135 5//135
f 148//136 59//136 60//136
f 150//137 58//137 59//137
f 150//138 152//138 57//138
f 154//139 56//139 57//139
f 154//140 160//140 55//140
f 46//55 145//55 48//55
f 45//141 147//141 145//141
f 44//142 149//142 147//142
f 44//143 43//143 151//143
f 42//144 153//144 151//144
f 41//145 155//145 153//145
f 49//146 50//146 156//146
f 156//147 50//147 51//147
f 51//63 52//63 158//63
f 52//148 53//148 159//148
f 159//149 53//149 54//149
f 29//2 166//2 46//2
f 172//2 45//2 46//2
f 178//2 44//2 45//2
f 178//66 184//66 43//66
f 190//2 42//2 43//2
f 196//2 41//2 42//2
f 3//2 28//2 161//2
f 161//2 162//2 33//2
f 162//2 163//2 32//2
f 32//2 163//2 164//2
f 164//2 165//2 30//2
f 165//2 166//2 29//2
f 28//2 27//2 167//2
f 167//2 168//2 162//2
f 168//2 169//2 163//2
f 163//2 169//2 170//2
f 170//2 171//2 165//2
f 165//2 171//2 172//2
f 26//2 173//2 167//2
f 173//2 174//2 168//2
f 168//2 174//2 175//2
f 175//2 176//2 170//2
f 176//2 177//2 171//2
f 171//2 177//2 178//2
f 25//66 179//66 173//66
f 173//66 179//66 180//66
f 174//67 180//67 181//67
f 175//66 181//66 182//66
f 182//150 183//150 177//150
f 183//68 184//68 178//68
f 24//2 185//2 179//2
f 185//2 186//2 180//2
f 186//2 187//2 181//2
f 181//2 187//2 188//2
f 188//2 189//2 183//2
f 183//2 189//2 190//2
f 24//2 23//2 191//2
f 191//2 192//2 186//2
f 192//2 193//2 187//2
f 187//2 193//2 194//2
f 194//2 195//2 189//2
f 189//2 195//2 196//2
f 23//2 4//2 35//2
f 35//2 36//2 192//2
f 36//2 37//2 193//2
f 193//2 37//2 38//2
f 194//2 38//2 39//2
f 195//2 39//2 40//2
f 198//151 28//151 3//151
f 198//152 200//152 27//152
f 200//153 202//153 26//153
f 204//154 25//154 26//154
f 204//155 206//155 24//155
f 206//156 212//156 23//156
f 1//157 11//157 197//157
f 11//158 12//158 199//158
f 12//79 13//79 201//79
f 14//80 203//80 201//80
f 15//159 205//159 203//159
f 16//160 207//160 205//160
f 17//161 18//161 208//161
f 208//162 18//162 19//162
f 19//163 20//163 210//163
f 20//92 21//92 211//92
f 211//164 21//164 22//164
f 212//165 155//165 156//165
f 212//166 156//166 211//166
f 156//167 157//167 211//167
f 209//168 210//168 158//168
f 210//169 211//169 157//169
f 158//170 210//170 157//170
f 158//171 159//171 208//171
f 159//87 160//87 208//87
f 208//171 209//171 158//171
f 146//2 47//2 10//2
f 10//2 197//2 146//2
f 197//2 199//2 148//2
f 199//2 201//2 150//2
f 201//66 203//66 150//66
f 203//2 205//2 154//2
f 205//2 207//2 154//2
f 207//2 160//2 154//2
f 154//2 152//2 203//2
f 152//66 150//66 203//66
f 148//2 146//2 197//2
f 9//4 48//4 198//4
f 48//4 145//4 198//4
f 145//4 147//4 198//4
f 147//4 149//4 200//4
f 198//4 147//4 200//4
f 151//4 153//4 206//4
f 153//4 155//4 212//4
f 149//47 151//47 202//47
f 202//4 200//4 149//4
f 212//4 206//4 153//4
f 206//4 204//4 151//4
# Vertices: 212, normals: 171, texture coordinates: 0, faces: 420

o obj2
v -0.5 0.06661695 -0.23
v 0 0.2 -0.23
v 0 0.06661695 -0.23
v 0 0.2 -0.23
v -0.5 0.2 0
v 0 0.2 0
v 0.3801295 -0.1957622 0.1748595
v 0 0.06661689 0.23
v -0.3801295 -0.1957622 0.1748595
v 0.5 0.06661689 0.23
v 0 0.1999999 0.23
v 0.5 0.06661689 0
v 0.5 0.2 -0.23
v 0.5 0.2 0
v -0.3801295 -0.1957622 -0.1748596
v 0.3801295 -0.1957622 -0.1748596
v 0.5 0.1999999 0.23
v -0.5 0.06661689 0.23
v -0.5 0.06661689 0
v -0.5 0.06661695 -0.23
v -0.3801295 -0.1957622 -0.1748596
v -0.5 0.1999999 0.23
v -0.5 0.06661689 0.23
v 0.5 0.06661695 -0.23
v -0.5 0.2 0
v -0.5 0.1999999 0.23
v -0.5 0.2 -0.23
v -0.5 0.1999999 0.23
v 0 0.1999999 0.23
v -0.3801295 -0.1957622 0.1748595
v -0.5 0.2 -0.23
v -0.5 0.2 -0.23
vn 0 0 -1
vn 0 1 0
vn 0 -0.20566 0.97862
vn 0 0 1
vn 1 0 0
vn 0 -0.20566 -0.97862
vn 0 -1 0
vn -0.90957 -0.41555 0
vn -0.90957 -0.41555 0
vn 0.90957 -0.41555 0
vn -1 0 0
vn 0.90957 -0.41555 0
vt 0.875 0.625
vt 0.75 0.75
vt 0.75 0.625
vt 0.625 0.875
vt 0.5 1
vt 0.5 0.875
vt 0.375 0.5
vt 0.25 0.625
vt 0.375 0.25
vt 0.375 0.625
vt 0.25 0.75
vt 0.5 0.625
vt 0.625 0.75
vt 0.5 0.75
vt 0.875 0.5
vt 0.625 0.5
vt 0.375 0.75
vt 0.375 0.125
vt 0.5 0.125
vt 0.625 0.125
vt 0.625 0.25
vt 0.125 0.75
vt 0.125 0.625
vt 0.625 0.625
vt 0.5 0
vt 0.375 0
vt 0.625 0
vt 0.375 1
vt 0.375 0.875
vt 0.125 0.5
vt 0.875 0.75
vt 0.625 1
usemtl mat0
f 213/1/172 214/2/172 215/3/172
f 216/4/173 217/5/173 218/6/173
f 219/7/174 220/8/174 221/9/174
f 222/10/175 223/11/175 220/8/175
f 224/12/176 225/13/176 226/14/176
f 227/15/177 213/1/177 215/3/177
f 219/7/178 227/15/178 228/16/178
f 227/15/177 215/3/177 228/16/177
f 222/10/176 226/14/176 229/17/176
f 230/18/179 231/19/179 221/9/179
f 231/19/180 232/20/180 233/21/180
f 220/8/175 234/22/175 235/23/175
f 222/10/181 219/7/181 224/12/181
f 236/24/177 228/16/177 215/3/177
f 237/25/182 230/18/182 238/26/182
f 239/27/182 231/19/182 237/25/182
f 218/6/173 240/28/173 241/29/173
f 226/14/173 241/29/173 229/17/173
f 225/13/173 218/6/173 226/14/173
f 215/3/172 225/13/172 236/24/172
f 231/19/179 233/21/179 221/9/179
f 228/16/181 224/12/181 219/7/181
f 235/23/174 242/30/174 220/8/174
f 219/7/174 222/10/174 220/8/174
f 228/16/183 236/24/183 224/12/183
f 213/1/172 243/31/172 214/2/172
f 216/4/173 244/32/173 217/5/173
f 222/10/175 229/17/175 223/11/175
f 224/12/176 236/24/176 225/13/176
f 219/7/178 221/9/178 227/15/178
f 222/10/176 224/12/176 226/14/176
f 220/8/175 223/11/175 234/22/175
f 237/25/182 231/19/182 230/18/182
f 239/27/182 232/20/182 231/19/182
f 218/6/173 217/5/173 240/28/173
f 226/14/173 218/6/173 241/29/173
f 225/13/173 216/4/173 218/6/173
f 215/3/172 214/2/172 225/13/172
# Vertices: 32, normals: 12, texture coordinates: 32, faces: 38

