# File generated by ImageToStl.com - Free Image and 3D model conversion tools

mtllib moving_head.mtl

o obj1
v 0.4 0.4917432 0.3000002
v 0.4 0.4917435 -0.2999998
v -0.4 0.4917435 -0.2999997
v -0.3999999 0.4917432 0.3000002
v 0.4 0.2536019 0.2999998
v 0.3999997 0.2536022 -0.3000003
v -0.4 0.2536022 -0.3
v -0.4 0.2536019 0.3000001
vn 0 1 0
vn 0 -1 -0
vn 1 0 0
vn -0 0 -1
vn -1 0 0
vn 0 -0 1
vn 0 1 0
vn 0 -1 -0
vn 1 -0 -0
vn -0 0 -1
vn -1 0 0
vn 0 -0 1
usemtl mat0
f 1//1 3//1 4//1
f 8//2 6//2 5//2
f 5//3 2//3 1//3
f 6//4 3//4 2//4
f 3//5 8//5 4//5
f 1//6 8//6 5//6
f 1//7 2//7 3//7
f 8//8 7//8 6//8
f 5//9 6//9 2//9
f 6//10 7//10 3//10
f 3//11 7//11 8//11
f 1//12 4//12 8//12
# Vertices: 8, normals: 12, texture coordinates: 0, faces: 12

o obj2
v -0.2268707 0.25070744 -0.14999973
v -0.3194169 -0.31929256 -0.15000013
v -0.226871 0.25070714 0.15000007
v -0.3194174 -0.31929276 0.14999967
v 0.2255027 0.25070744 -0.14999973
v 0.3180455 -0.31929256 -0.15000013
v 0.2255027 0.25070714 0.15000007
v 0.3180455 -0.31929276 0.14999967
v -0.3193429 -0.34989146 -0.09000018
v -0.3193557 -0.34989156 0.08999964
v -0.2275866 -0.31929276 0.14999967
v -0.1533504 0.14785994 0.14999697
v 0.1447603 0.14785994 0.14999697
v 0.2189966 -0.31929276 0.14999967
v 0.3179709 -0.34989156 0.08999964
v 0.3179709 -0.34989146 -0.09000018
v 0.2189967 -0.31929256 -0.15000013
v 0.1447603 0.14786014 -0.14999663
v -0.1533504 0.14786014 -0.14999663
v -0.2275866 -0.31929256 -0.15000013
v 0.219 -0.38929266 0.08999964
v 0.219 -0.38929256 -0.09000018
v -0.22759 -0.38929266 0.08999964
v -0.22759 -0.38929256 -0.09000018
v -0.224133 0.03090404 0.15000297
v -0.224133 0.03090414 -0.15000293
v 0.215543 0.03090404 0.15000297
v 0.215543 0.03090414 -0.15000293
v 0.3190157 -0.03429306 0.14999997
v 0.3190157 -0.03429282 -0.15000003
v -0.3203856 -0.03429306 0.14999997
v -0.3203853 -0.03429282 -0.15000003
vn 0 -3E-05 1
vn 0.99999 -0.00331 0
vn 0 -3E-05 -1
vn 0 1 0
vn -0.26915 -0.62677 -0.73124
vn 0 -0.89084 -0.45431
vn 0 -1 -0
vn 0 -0.89084 0.45431
vn -0.85552 -0.51777 -0
vn 0.99997 -0.00823 0
vn 0.85552 -0.51777 -0
vn -0.99997 -0.00823 0
vn -0.26912 -0.62678 0.73125
vn -0.39454 -0.91888 -3E-05
vn 0.36987 -0.92908 -0
vn 0.95016 0.31176 0
vn -0.99999 -0.0033 -0
vn -0.95016 0.31177 -0
vn -4E-05 1E-05 1
vn 0 -0 1
vn -3E-05 -1E-05 1
vn 2E-05 -1E-05 1
vn 4E-05 1E-05 1
vn 6E-05 1E-05 1
vn -6E-05 2E-05 1
vn 0 -3E-05 1
vn 0.99999 -0.0034 0.00049
vn 0.99999 -0.0034 -0.00049
vn 4E-05 1E-05 -1
vn 0 0 -1
vn 2E-05 -1E-05 -1
vn -3E-05 -1E-05 -1
vn -4E-05 1E-05 -1
vn -6E-05 2E-05 -1
vn 6E-05 2E-05 -1
vn 0 1 0
vn 0 -0.89084 -0.45431
vn 0.2508 -0.62998 -0.735
vn 0 -1 -0
vn 0.2508 -0.62999 0.73499
vn -0.85552 -0.51777 -0
vn 0.99989 -0.00986 -0.01145
vn 0.99989 -0.00986 0.01145
vn 0.99997 -0.00823 0
vn 0.85552 -0.51777 -0
vn -0.99997 -0.00823 0
vn -0.99989 -0.00986 0.01145
vn -0.99989 -0.00986 -0.01145
vn 0 -0.89084 0.45431
vn -0.39458 -0.91886 -0
vn 0.36987 -0.92908 -0
vn 0.95016 0.31176 0
vn -0.99999 -0.0034 0.0007
vn -0.99999 -0.0034 -0.0005
vn -0.99999 -0.00325 -7E-05
vn -0.95016 0.31177 -0
usemtl mat1
f 11//13 21//13 15//13
f 23//14 24//14 37//14
f 26//15 27//15 9//15
f 15//16 9//16 11//16
f 17//17 28//17 32//17
f 24//18 25//18 14//18
f 20//19 26//19 21//19
f 22//20 23//20 16//20
f 26//21 35//21 21//21
f 33//22 31//22 34//22
f 34//23 20//23 33//23
f 35//24 36//24 30//24
f 19//25 18//25 31//25
f 17//26 31//26 18//26
f 24//27 29//27 30//27
f 37//28 13//28 15//28
f 40//29 17//29 39//29
f 11//30 40//30 39//30
f 11//31 39//31 33//31
f 12//32 19//32 39//32
f 39//33 19//33 33//33
f 16//32 37//32 22//32
f 35//34 22//34 37//34
f 35//35 37//35 15//35
f 11//36 33//36 20//36
f 21//37 35//37 15//37
f 11//38 20//38 21//38
f 38//14 37//14 24//14
f 16//39 23//39 37//39
f 24//40 14//40 38//40
f 13//41 38//41 36//41
f 14//42 25//42 38//42
f 38//43 25//43 36//43
f 10//42 40//42 28//42
f 34//44 28//44 40//44
f 34//45 40//45 9//45
f 13//46 36//46 26//46
f 27//47 34//47 9//47
f 13//15 26//15 9//15
f 15//48 13//48 9//48
f 17//49 10//49 28//49
f 24//50 30//50 25//50
f 20//51 27//51 26//51
f 22//52 29//52 23//52
f 26//53 36//53 35//53
f 28//54 34//54 32//54
f 33//55 19//55 31//55
f 31//56 32//56 34//56
f 34//57 27//57 20//57
f 30//58 29//58 35//58
f 22//59 35//59 29//59
f 36//60 25//60 30//60
f 19//61 12//61 18//61
f 17//62 32//62 31//62
f 24//63 23//63 29//63
f 37//64 38//64 13//64
f 12//65 39//65 18//65
f 40//66 10//66 17//66
f 17//67 18//67 39//67
f 11//68 9//68 40//68
# Vertices: 32, normals: 56, texture coordinates: 0, faces: 60

o obj3
v -0.1276991 0.00911924 -0.12774311
v -0.08493405 -0.58761016 -0.08497809
v -0.1276991 0.00911884 0.12765519
v -0.08493405 -0.58761016 0.08488977
v 0.1276991 0.00911924 -0.12774311
v 0.08493405 -0.58761016 -0.08497809
v 0.1276991 0.00911884 0.12765519
v 0.08493405 -0.58761016 0.08488977
v -0.159624 0.00911894 0.09573031
v -0.159624 0.00911914 0.03188062
v -0.159624 0.00911914 -0.03196858
v -0.159624 0.00911914 -0.09581821
v -0.1486747 -0.07561026 -0.14871851
v -0.16 -0.20361038 -0.16004391
v -0.16 -0.33160991 -0.16004391
v -0.1428915 -0.45961006 -0.14293551
v -0.1061676 -0.58761016 -0.06374459
v -0.1061676 -0.58761016 -0.02127741
v -0.1061676 -0.58761016 0.02118922
v -0.1061676 -0.58761016 0.06365627
v -0.1428915 -0.45961026 0.14284709
v -0.16 -0.33161027 0.15995579
v -0.16 -0.20361061 0.15995579
v -0.1486747 -0.07561046 0.14863059
v 0.09577441 0.00971834 0.15957989
v 0.03192478 0.00971834 0.15957989
v -0.03192478 0.00971834 0.15957989
v -0.09577441 0.00971834 0.15957989
v -0.06370055 -0.58761016 0.10612329
v -0.02123332 -0.58761016 0.10612329
v 0.02123332 -0.58761016 0.10612329
v 0.06370049 -0.58761016 0.10612329
v 0.1428914 -0.45961026 0.14284709
v 0.16 -0.33161027 0.15995579
v 0.16 -0.20361061 0.15995579
v 0.1486747 -0.07561046 0.14863059
v 0.159624 0.00911914 -0.09581821
v 0.159624 0.00911914 -0.03196858
v 0.159624 0.00911914 0.03188062
v 0.159624 0.00911894 0.09573031
v 0.1061676 -0.58761016 0.06365627
v 0.1061676 -0.58761016 0.02118922
v 0.1061676 -0.58761016 -0.02127741
v 0.1061676 -0.58761016 -0.06374459
v 0.1428914 -0.45961006 -0.14293551
v 0.16 -0.33160991 -0.16004391
v 0.16 -0.20361038 -0.16004391
v 0.1486747 -0.07561026 -0.14871851
v -0.09577441 0.00821254 -0.15966781
v -0.03192478 0.00821254 -0.15966781
v 0.03192478 0.00821254 -0.15966781
v 0.09577441 0.00821254 -0.15966781
v 0.06370049 -0.58761016 -0.10621171
v 0.02123332 -0.58761016 -0.10621171
v -0.02123332 -0.58761016 -0.10621171
v -0.06370055 -0.58761016 -0.10621171
v 0.06370049 -0.58761016 0.06365627
v 0.06370049 -0.58761016 0.02118922
v 0.06370049 -0.58761016 -0.02127741
v 0.06370049 -0.58761016 -0.06374459
v 0.02123332 -0.58761016 0.06365627
v 0.02123332 -0.58761016 0.02118922
v 0.02123332 -0.58761016 -0.02127741
v 0.02123332 -0.58761016 -0.06374459
v -0.02123332 -0.58761016 0.06365627
v -0.02123332 -0.58761016 0.02118922
v -0.02123332 -0.58761016 -0.02127741
v -0.02123332 -0.58761016 -0.06374459
v -0.06370055 -0.58761016 0.06365627
v -0.06370055 -0.58761016 0.02118922
v -0.06370055 -0.58761016 -0.02127741
v -0.06370055 -0.58761016 -0.06374459
v -0.09577441 0.04902484 0.09573037
v -0.09577441 0.04902504 0.03188056
v -0.09577441 0.04902504 -0.03196864
v -0.09577441 0.04902504 -0.09581827
v -0.03192478 0.04902484 0.09573037
v -0.03192478 0.04902504 0.03188056
v -0.03192478 0.04902504 -0.03196864
v -0.03192478 0.04902504 -0.09581827
v 0.03192478 0.04902484 0.09573037
v 0.03192478 0.04902504 0.03188056
v 0.03192478 0.04902504 -0.03196864
v 0.03192478 0.04902504 -0.09581827
v 0.09577441 0.04902484 0.09573037
v 0.09577441 0.04902504 0.03188056
v 0.09577441 0.04902504 -0.03196864
v 0.09577441 0.04902504 -0.09581827
v 0.1115061 -0.07561016 -0.18588711
v 0.03716868 -0.07561016 -0.18588711
v -0.03716868 -0.07561016 -0.18588711
v -0.1115061 -0.07561016 -0.18588711
v 0.12 -0.20361032 -0.20004401
v 0.03999996 -0.20361032 -0.20004401
v -0.03999996 -0.20361032 -0.20004401
v -0.12 -0.20361032 -0.20004401
v 0.12 -0.33160991 -0.20004401
v 0.03999996 -0.33160991 -0.20004401
v -0.03999996 -0.33160991 -0.20004401
v -0.12 -0.33160991 -0.20004401
v 0.1071686 -0.45960996 -0.17865831
v 0.03572285 -0.45960996 -0.17865831
v -0.03572285 -0.45960996 -0.17865831
v -0.1071686 -0.45960996 -0.17865831
v 0.1858434 -0.07561046 0.11146179
v 0.1858434 -0.07561036 0.03712452
v 0.1858434 -0.07561026 -0.0372126
v 0.1858434 -0.07561026 -0.11154991
v 0.2 -0.20361055 0.11995589
v 0.2 -0.20361055 0.0399558
v 0.2 -0.20361049 -0.04004394
v 0.2 -0.20361044 -0.12004401
v 0.2 -0.33161027 0.11995589
v 0.2 -0.33161021 0.0399558
v 0.2 -0.33161009 -0.040044
v 0.2 -0.33161003 -0.12004391
v 0.1786143 -0.45961026 0.10712429
v 0.1786143 -0.45961016 0.03567863
v 0.1786143 -0.45961016 -0.03576683
v 0.1786143 -0.45961006 -0.10721271
v -0.1115061 -0.07561056 0.18579939
v -0.03716868 -0.07561056 0.18579939
v 0.03716868 -0.07561056 0.18579939
v 0.1115061 -0.07561056 0.18579939
v -0.12 -0.20361061 0.19995569
v -0.03999996 -0.20361061 0.19995569
v 0.03999996 -0.20361061 0.19995569
v 0.12 -0.20361061 0.19995569
v -0.12 -0.33161033 0.19995569
v -0.03999996 -0.33161033 0.19995569
v 0.03999996 -0.33161033 0.19995569
v 0.12 -0.33161033 0.19995569
v -0.1071686 -0.45961036 0.17856989
v -0.03572285 -0.45961036 0.17856989
v 0.03572285 -0.45961036 0.17856989
v 0.1071686 -0.45961036 0.17856989
v -0.1858434 -0.07561026 -0.11154991
v -0.1858434 -0.07561026 -0.0372126
v -0.1858434 -0.07561036 0.03712452
v -0.1858434 -0.07561046 0.11146179
v -0.2 -0.20361044 -0.12004401
v -0.2 -0.20361049 -0.04004394
v -0.2 -0.20361055 0.0399558
v -0.2 -0.20361055 0.11995589
v -0.2 -0.33161003 -0.12004391
v -0.2 -0.33161009 -0.040044
v -0.2 -0.33161021 0.0399558
v -0.2 -0.33161027 0.11995589
v -0.1786143 -0.45961006 -0.10721271
v -0.1786143 -0.45961016 -0.03576683
v -0.1786143 -0.45961016 0.03567863
v -0.1786143 -0.45961026 0.10712429
vn -0.59548 -0.53926 0.59548
vn 0.59548 -0.53926 0.59548
vn 0.59548 -0.53926 -0.59548
vn -0.59548 -0.53926 -0.59548
vn 0.4576 0.74918 -0.47888
vn 0 -1 0
vn 0 -1 -0
vn 0 -1 -0
vn 0 -1 -0
vn -0.46829 0.74927 -0.46829
vn 0 0.84258 -0.53857
vn 0 0.84258 -0.53857
vn -0.46829 0.74927 0.46829
vn -0.53 0.848 0
vn -0.53 0.848 0
vn -0.53 0.848 0
vn 0 0.85157 0.52424
vn 0 1 0
vn 0 1 0
vn 0 0.85157 0.52424
vn 0 1 0
vn 0 0.85157 0.52424
vn 0.4753 0.74923 0.46123
vn 0.53 0.848 0
vn 0.53 0.848 0
vn -0.66268 0.33043 -0.67206
vn -0.70164 0.12416 -0.70163
vn -0.70711 0 -0.70711
vn -0.6948 -0.18574 -0.6948
vn 0.66268 0.33043 -0.67206
vn 0 0.29853 -0.9544
vn 0 0.29853 -0.9544
vn 0.70164 0.12416 -0.70163
vn 0 0.10993 -0.99394
vn 0.70711 0 -0.70711
vn 0 0 -1
vn 0.6948 -0.18574 -0.6948
vn 0 -0.16479 -0.98633
vn 0 -0.16479 -0.98633
vn 0.59548 -0.53926 -0.59548
vn 0 -0.49257 -0.87028
vn 0 -0.49257 -0.87028
vn 0.66739 0.33044 -0.66739
vn 0.70163 0.12416 -0.70164
vn 0.70711 -0 -0.70711
vn 0.6948 -0.18573 -0.6948
vn 0.66739 0.33044 0.66739
vn 0.95531 0.29562 0
vn 0.95531 0.29562 0
vn 0.95531 0.29562 0
vn 0.70164 0.12416 0.70164
vn 0.99394 0.10993 0
vn 0.99394 0.10993 0
vn 0.99394 0.10993 0
vn 0.70711 -0 0.70711
vn 1 0 0
vn 1 -0 0
vn 0.6948 -0.18574 0.6948
vn 0.98633 -0.16479 0
vn 0.98633 -0.16479 -0
vn 0.98633 -0.16479 -0
vn 0.59548 -0.53926 0.59548
vn 0.87027 -0.49257 -0
vn 0.87027 -0.49257 -0
vn 0.87027 -0.49257 0
vn 0.67048 0.33043 0.66428
vn 0.70164 0.12416 0.70163
vn 0.70711 0 0.70711
vn 0.6948 -0.18574 0.6948
vn -0.67048 0.33043 0.66428
vn 0 0.29372 0.95589
vn 0 0.29372 0.95589
vn -0.70164 0.12416 0.70163
vn 0 0.10993 0.99394
vn 0 0.10993 0.99394
vn 0 0.10993 0.99394
vn -0.70711 -0 0.70711
vn 0 0 1
vn -0.6948 -0.18574 0.6948
vn 0 -0.16479 0.98633
vn -0.59548 -0.53926 0.59548
vn 0 -0.49257 0.87027
vn 0 -0.49257 0.87027
vn 0 -0.49257 0.87027
vn -0.66739 0.33044 0.66739
vn -0.70164 0.12416 0.70164
vn -0.70711 -0 0.70711
vn -0.6948 -0.18574 0.6948
vn -0.66739 0.33044 -0.66739
vn -0.95531 0.29562 0
vn -0.95531 0.29562 0
vn -0.95531 0.29562 0
vn -0.70163 0.12416 -0.70164
vn -0.99394 0.10993 0
vn -0.99394 0.10993 0
vn -0.99394 0.10993 0
vn -0.70711 0 -0.70711
vn -1 0 0
vn -1 -0 0
vn -1 -0 0
vn -0.6948 -0.18573 -0.6948
vn -0.98633 -0.16479 -0
vn -0.98633 -0.16479 -0
vn -0.98633 -0.16479 0
vn -0.59548 -0.53926 -0.59548
vn -0.87027 -0.49257 0
vn -0.87027 -0.49257 -0
vn -0.87027 -0.49257 -0
vn -0.59548 -0.53926 0.59548
vn 0.59548 -0.53926 0.59548
vn 0.59548 -0.53926 -0.59548
vn -0.59548 -0.53926 -0.59548
vn 0.46829 0.74927 -0.46829
vn 0 -1 -0
vn 0 -1 -0
vn -0.4576 0.74918 -0.47888
vn 0 0.84258 -0.53857
vn -0.4753 0.74923 0.46123
vn -0.53 0.848 0
vn -0.53 0.848 0
vn -0.53 0.848 0
vn 0 0.85157 0.52424
vn 0 1 0
vn 0 1 0
vn 0 1 0
vn 0 0.85157 0.52424
vn 0 1 0
vn 0.46829 0.74927 0.46829
vn 0.53 0.848 0
vn 0.53 0.848 0
vn 0.53 0.848 0
vn -0.6666 0.33361 -0.6666
vn -0.70164 0.12416 -0.70163
vn -0.70711 0 -0.70711
vn -0.6948 -0.18573 -0.6948
vn 0.6666 0.33361 -0.6666
vn 0 0.29853 -0.9544
vn 0 0.29853 -0.9544
vn 0 0.29853 -0.9544
vn 0.70164 0.12416 -0.70163
vn 0 0.10993 -0.99394
vn 0.70711 0 -0.70711
vn 0.6948 -0.18573 -0.6948
vn 0 -0.16479 -0.98633
vn 0 -0.16479 -0.98633
vn 0.59548 -0.53926 -0.59548
vn 0.66739 0.33044 -0.66739
vn 0.70163 0.12416 -0.70164
vn 0.70711 0 -0.70711
vn 0.6948 -0.18573 -0.6948
vn 0.66739 0.33044 0.66739
vn 0.95531 0.29562 0
vn 0.95531 0.29562 0
vn 0.95531 0.29562 0
vn 0.70163 0.12416 0.70164
vn 0.99394 0.10993 0
vn 0.99394 0.10993 0
vn 0.99394 0.10993 0
vn 0.70711 -0 0.70711
vn 1 0 0
vn 1 -0 0
vn 0.6948 -0.18574 0.6948
vn 0.98633 -0.16479 -0
vn 0.98633 -0.16479 -0
vn 0.98633 -0.16479 0
vn 0.59548 -0.53926 0.59548
vn 0.87027 -0.49257 0
vn 0.87027 -0.49257 0
vn 0.87027 -0.49257 -0
vn 0.6679 0.32837 0.6679
vn 0.70163 0.12416 0.70164
vn 0.70711 -0 0.70711
vn 0.6948 -0.18574 0.6948
vn -0.6679 0.32837 0.6679
vn 0 0.29372 0.95589
vn 0 0.29372 0.95589
vn 0 0.29372 0.95589
vn -0.70163 0.12416 0.70164
vn 0 0.10993 0.99394
vn -0.70711 0 0.70711
vn -0.6948 -0.18574 0.6948
vn 0 -0.16479 0.98633
vn -0.59548 -0.53926 0.59548
vn 0 -0.49257 0.87027
vn -0.70163 0.12416 0.70164
vn -0.70711 -0 0.70711
vn -0.6948 -0.18574 0.6948
vn -0.66739 0.33044 -0.66739
vn -0.95531 0.29562 0
vn -0.95531 0.29562 0
vn -0.95531 0.29562 0
vn -0.70163 0.12416 -0.70164
vn -0.99394 0.10993 0
vn -0.99394 0.10993 0
vn -0.99394 0.10993 0
vn -0.70711 -0 -0.70711
vn -1 0 0
vn -1 0 0
vn -0.6948 -0.18573 -0.6948
vn -0.98633 -0.16479 0
vn -0.98633 -0.16479 0
vn -0.98633 -0.16479 -0
vn -0.59548 -0.53926 -0.59548
vn -0.87027 -0.49257 -0
vn -0.87027 -0.49257 0
vn -0.87027 -0.49257 0
usemtl mat1
f 60//69 61//69 192//69
f 72//70 73//70 176//70
f 84//71 85//71 160//71
f 96//72 56//72 144//72
f 128//73 45//73 92//73
f 112//74 42//74 96//74
f 100//75 46//75 84//75
f 104//74 93//74 100//74
f 108//74 94//74 104//74
f 112//74 95//74 108//74
f 48//76 97//76 81//76
f 97//74 82//74 81//74
f 98//74 83//74 82//74
f 99//75 84//75 83//75
f 71//74 97//74 72//74
f 101//74 98//74 97//74
f 102//74 99//74 98//74
f 103//75 100//75 99//75
f 70//74 101//74 71//74
f 105//74 102//74 101//74
f 106//74 103//74 102//74
f 107//77 104//77 103//77
f 69//74 105//74 70//74
f 109//74 106//74 105//74
f 110//74 107//74 106//74
f 111//75 108//75 107//75
f 44//74 109//74 69//74
f 60//74 110//74 109//74
f 59//74 111//74 110//74
f 58//75 112//75 111//75
f 116//78 41//78 52//78
f 120//79 89//79 116//79
f 124//80 90//80 120//80
f 128//79 91//79 124//79
f 43//81 113//81 49//81
f 113//82 50//82 49//82
f 114//83 51//83 50//83
f 115//84 52//84 51//84
f 67//85 113//85 68//85
f 117//86 114//86 113//86
f 118//87 115//87 114//87
f 119//87 116//87 115//87
f 66//88 117//88 67//88
f 121//89 118//89 117//89
f 122//87 119//87 118//87
f 123//87 120//87 119//87
f 65//90 121//90 66//90
f 125//86 122//86 121//86
f 126//87 123//87 122//87
f 127//87 124//87 123//87
f 47//91 125//91 65//91
f 80//92 126//92 125//92
f 79//93 127//93 126//93
f 78//93 128//93 127//93
f 89//94 53//94 41//94
f 132//95 54//95 53//95
f 140//96 54//96 136//96
f 144//97 55//97 140//97
f 88//98 92//98 45//98
f 92//99 130//99 91//99
f 130//100 90//100 91//100
f 131//99 89//99 90//99
f 87//101 129//101 88//101
f 129//102 134//102 130//102
f 130//102 135//102 131//102
f 135//102 132//102 131//102
f 86//103 133//103 87//103
f 137//104 134//104 133//104
f 138//104 135//104 134//104
f 139//104 136//104 135//104
f 86//105 141//105 137//105
f 141//106 138//106 137//106
f 142//107 139//107 138//107
f 139//106 144//106 140//106
f 85//108 93//108 141//108
f 93//109 142//109 141//109
f 94//110 143//110 142//110
f 143//110 96//110 144//110
f 77//111 88//111 45//111
f 148//112 87//112 88//112
f 156//113 87//113 152//113
f 160//114 86//114 156//114
f 76//115 80//115 47//115
f 80//116 146//116 79//116
f 79//117 147//117 78//117
f 147//118 77//118 78//118
f 75//119 145//119 76//119
f 145//120 150//120 146//120
f 146//121 151//121 147//121
f 151//122 148//122 147//122
f 74//123 149//123 75//123
f 153//124 150//124 149//124
f 154//125 151//125 150//125
f 155//124 152//124 151//124
f 74//126 157//126 153//126
f 157//127 154//127 153//127
f 158//128 155//128 154//128
f 155//129 160//129 156//129
f 73//130 81//130 157//130
f 81//131 158//131 157//131
f 82//132 159//132 158//132
f 159//133 84//133 160//133
f 65//134 76//134 47//134
f 164//135 75//135 76//135
f 172//136 75//136 168//136
f 176//137 74//137 172//137
f 64//138 68//138 43//138
f 68//139 162//139 67//139
f 67//140 163//140 66//140
f 163//139 65//139 66//139
f 63//141 161//141 64//141
f 161//142 166//142 162//142
f 166//143 163//143 162//143
f 167//144 164//144 163//144
f 62//145 165//145 63//145
f 169//146 166//146 165//146
f 170//146 167//146 166//146
f 171//146 168//146 167//146
f 62//147 173//147 169//147
f 173//148 170//148 169//148
f 174//148 171//148 170//148
f 171//148 176//148 172//148
f 61//149 69//149 173//149
f 69//150 174//150 173//150
f 174//151 71//151 175//151
f 175//152 72//152 176//152
f 49//153 64//153 43//153
f 180//154 63//154 64//154
f 188//155 63//155 184//155
f 192//156 62//156 188//156
f 53//157 52//157 41//157
f 52//158 178//158 51//158
f 178//159 50//159 51//159
f 179//160 49//160 50//160
f 54//161 177//161 53//161
f 177//162 182//162 178//162
f 182//163 179//163 178//163
f 183//164 180//164 179//164
f 55//165 181//165 54//165
f 185//166 182//166 181//166
f 186//167 183//167 182//167
f 187//168 184//168 183//168
f 55//169 189//169 185//169
f 189//170 186//170 185//170
f 190//171 187//171 186//171
f 187//172 192//172 188//172
f 56//173 57//173 189//173
f 57//174 190//174 189//174
f 58//175 191//175 190//175
f 191//176 60//176 192//176
f 60//177 44//177 61//177
f 72//178 48//178 73//178
f 84//179 46//179 85//179
f 96//180 42//180 56//180
f 128//181 77//181 45//181
f 112//75 57//75 42//75
f 100//74 93//74 46//74
f 104//74 94//74 93//74
f 108//74 95//74 94//74
f 112//74 96//74 95//74
f 48//74 72//74 97//74
f 97//75 98//75 82//75
f 98//74 99//74 83//74
f 99//74 100//74 84//74
f 71//74 101//74 97//74
f 101//182 102//182 98//182
f 102//74 103//74 99//74
f 103//74 104//74 100//74
f 70//74 105//74 101//74
f 105//183 106//183 102//183
f 106//74 107//74 103//74
f 107//74 108//74 104//74
f 69//74 109//74 105//74
f 109//182 110//182 106//182
f 110//74 111//74 107//74
f 111//74 112//74 108//74
f 44//74 60//74 109//74
f 60//75 59//75 110//75
f 59//74 58//74 111//74
f 58//74 57//74 112//74
f 116//184 89//184 41//184
f 120//79 90//79 89//79
f 124//185 91//185 90//185
f 128//79 92//79 91//79
f 43//186 68//186 113//186
f 113//187 114//187 50//187
f 114//188 115//188 51//188
f 115//189 116//189 52//189
f 67//190 117//190 113//190
f 117//191 118//191 114//191
f 118//87 119//87 115//87
f 119//192 120//192 116//192
f 66//88 121//88 117//88
f 121//191 122//191 118//191
f 122//87 123//87 119//87
f 123//193 124//193 120//193
f 65//194 125//194 121//194
f 125//191 126//191 122//191
f 126//87 127//87 123//87
f 127//195 128//195 124//195
f 47//196 80//196 125//196
f 80//197 79//197 126//197
f 79//198 78//198 127//198
f 78//199 77//199 128//199
f 89//200 132//200 53//200
f 132//201 136//201 54//201
f 140//202 55//202 54//202
f 144//203 56//203 55//203
f 88//204 129//204 92//204
f 92//205 129//205 130//205
f 130//206 131//206 90//206
f 131//207 132//207 89//207
f 87//208 133//208 129//208
f 129//209 133//209 134//209
f 130//209 134//209 135//209
f 135//209 136//209 132//209
f 86//210 137//210 133//210
f 137//104 138//104 134//104
f 138//104 139//104 135//104
f 139//104 140//104 136//104
f 86//211 85//211 141//211
f 141//212 142//212 138//212
f 142//213 143//213 139//213
f 139//212 143//212 144//212
f 85//214 46//214 93//214
f 93//109 94//109 142//109
f 94//110 95//110 143//110
f 143//110 95//110 96//110
f 77//215 148//215 88//215
f 148//216 152//216 87//216
f 156//217 86//217 87//217
f 160//218 85//218 86//218
f 76//219 145//219 80//219
f 80//220 145//220 146//220
f 79//221 146//221 147//221
f 147//222 148//222 77//222
f 75//223 149//223 145//223
f 145//224 149//224 150//224
f 146//225 150//225 151//225
f 151//226 152//226 148//226
f 74//227 153//227 149//227
f 153//124 154//124 150//124
f 154//228 155//228 151//228
f 155//229 156//229 152//229
f 74//230 73//230 157//230
f 157//231 158//231 154//231
f 158//232 159//232 155//232
f 155//233 159//233 160//233
f 73//234 48//234 81//234
f 81//235 82//235 158//235
f 82//236 83//236 159//236
f 159//237 83//237 84//237
f 65//238 164//238 76//238
f 164//239 168//239 75//239
f 172//240 74//240 75//240
f 176//241 73//241 74//241
f 64//242 161//242 68//242
f 68//243 161//243 162//243
f 67//244 162//244 163//244
f 163//245 164//245 65//245
f 63//246 165//246 161//246
f 161//143 165//143 166//143
f 166//247 167//247 163//247
f 167//143 168//143 164//143
f 62//248 169//248 165//248
f 169//146 170//146 166//146
f 170//146 171//146 167//146
f 171//146 172//146 168//146
f 62//249 61//249 173//249
f 173//250 174//250 170//250
f 174//250 175//250 171//250
f 171//148 175//148 176//148
f 61//251 44//251 69//251
f 69//252 70//252 174//252
f 174//252 70//252 71//252
f 175//252 71//252 72//252
f 49//153 180//153 64//153
f 180//253 184//253 63//253
f 188//254 62//254 63//254
f 192//255 61//255 62//255
f 53//256 177//256 52//256
f 52//257 177//257 178//257
f 178//258 179//258 50//258
f 179//259 180//259 49//259
f 54//260 181//260 177//260
f 177//261 181//261 182//261
f 182//262 183//262 179//262
f 183//263 184//263 180//263
f 55//264 185//264 181//264
f 185//166 186//166 182//166
f 186//265 187//265 183//265
f 187//266 188//266 184//266
f 55//267 56//267 189//267
f 189//268 190//268 186//268
f 190//269 191//269 187//269
f 187//270 191//270 192//270
f 56//271 42//271 57//271
f 57//272 58//272 190//272
f 58//273 59//273 191//273
f 191//274 59//274 60//274
# Vertices: 152, normals: 206, texture coordinates: 0, faces: 300

