# File generated by ImageToStl.com - Free Image and 3D model conversion tools

mtllib smoke.mtl

o obj1
v -0.2553058 -0.2 -0.5
v -0.3 -0.1702039 -0.5
v -0.3 -0.1702039 0.5
v -0.2553058 -0.2 0.5
v 0.3 -0.1702039 -0.5
v 0.2553058 -0.2 -0.5
v 0.2553058 -0.2 0.5
v 0.3 -0.1702039 0.5
v -0.3 0.1353825 -0.5
v -0.2030738 0.2 -0.5
v -0.2966973 0.1521068 -0.5
v -0.2870144 0.1676912 -0.5
v -0.271611 0.181074 -0.5
v -0.2515369 0.1913429 -0.5
v -0.2281602 0.1977982 -0.5
v -0.2030738 0.2 0.5
v -0.3 0.1353825 0.5
v -0.2281602 0.1977982 0.5
v -0.2515369 0.1913429 0.5
v -0.271611 0.181074 0.5
v -0.2870144 0.1676912 0.5
v -0.2966973 0.1521068 0.5
v 0.2030738 0.2 -0.5
v 0.3 0.1353825 -0.5
v 0.2281602 0.1977982 -0.5
v 0.2515369 0.1913429 -0.5
v 0.271611 0.181074 -0.5
v 0.2870144 0.1676912 -0.5
v 0.2966973 0.1521068 -0.5
v 0.3 0.1353825 0.5
v 0.2030738 0.2 0.5
v 0.2966973 0.1521068 0.5
v 0.2870144 0.1676912 0.5
v 0.271611 0.181074 0.5
v 0.2515369 0.1913429 0.5
v 0.2281602 0.1977982 0.5
vn 0 -1 0
vn -0 0 -1
vn 1 0 0
vn 0 1 0
vn -0.5547 -0.83205 0
vn 0.5547 -0.83205 0
vn 0 0 1
vn -0.08743 0.99617 0
vn -0.26618 0.96392 0
vn -0.45542 0.89028 0
vn -0.65586 0.75488 0
vn -0.8494 0.52775 0
vn -0.98105 0.19374 0
vn 0.98105 0.19374 0
vn 0.8494 0.52775 0
vn 0.65586 0.75489 0
vn 0.45542 0.89028 0
vn 0.26618 0.96392 0
vn 0.08743 0.99617 0
vn -1 0 0
vn 0 0 -1
vn 0 0 -1
vn 0 0 -1
vn -0.5547 -0.83205 0
vn 0.5547 -0.83205 0
vn 0 0 1
vn -0 0 1
vn -0 0 1
vn -0.26618 0.96392 0
vn -0.65586 0.75489 0
vn 0.65586 0.75488 0
vn 0.26618 0.96392 0
usemtl mat0
f 7//1 1//1 6//1
f 24//2 6//2 23//2
f 30//3 5//3 24//3
f 16//4 23//4 10//4
f 4//5 2//5 1//5
f 6//6 8//6 7//6
f 17//7 4//7 16//7
f 10//8 18//8 16//8
f 15//9 19//9 18//9
f 14//10 20//10 19//10
f 13//11 21//11 20//11
f 12//12 22//12 21//12
f 11//13 17//13 22//13
f 24//14 32//14 30//14
f 29//15 33//15 32//15
f 28//16 34//16 33//16
f 27//17 35//17 34//17
f 26//18 36//18 35//18
f 25//19 31//19 36//19
f 3//20 9//20 2//20
f 7//1 4//1 1//1
f 2//21 9//21 1//21
f 9//21 11//21 12//21
f 13//21 9//21 12//21
f 13//21 14//21 9//21
f 14//21 15//21 9//21
f 15//21 10//21 9//21
f 10//21 23//21 1//21
f 23//21 25//21 24//21
f 25//21 26//21 24//21
f 26//21 27//21 24//21
f 27//21 28//21 24//21
f 28//21 29//21 24//21
f 24//22 5//22 6//22
f 6//21 1//21 23//21
f 1//23 9//23 10//23
f 30//3 8//3 5//3
f 16//4 31//4 23//4
f 4//24 3//24 2//24
f 6//25 5//25 8//25
f 8//26 30//26 7//26
f 30//26 32//26 33//26
f 34//26 30//26 33//26
f 34//26 35//26 30//26
f 35//26 36//26 30//26
f 36//26 31//26 30//26
f 31//26 16//26 7//26
f 16//26 18//26 17//26
f 18//26 19//26 17//26
f 19//26 20//26 17//26
f 20//26 21//26 17//26
f 21//26 22//26 17//26
f 17//27 3//27 4//27
f 4//26 7//26 16//26
f 7//28 30//28 31//28
f 10//8 15//8 18//8
f 15//29 14//29 19//29
f 14//10 13//10 20//10
f 13//30 12//30 21//30
f 12//12 11//12 22//12
f 11//13 9//13 17//13
f 24//14 29//14 32//14
f 29//15 28//15 33//15
f 28//31 27//31 34//31
f 27//17 26//17 35//17
f 26//32 25//32 36//32
f 25//19 23//19 31//19
f 3//20 17//20 9//20
# Vertices: 36, normals: 32, texture coordinates: 0, faces: 68

o obj2
v 0 0.05999994 0.49589512
v 0 0.05999994 0.53589508
v 0.01170539 0.05884706 0.49589512
v 0.01170539 0.05884706 0.53589508
v 0.02296096 0.05543273 0.49589512
v 0.02296096 0.05543273 0.53589508
v 0.03333419 0.04988813 0.49589512
v 0.03333419 0.04988813 0.53589508
v 0.04242634 0.04242634 0.49589512
v 0.04242634 0.04242634 0.53589508
v 0.04988813 0.03333419 0.49589512
v 0.04988813 0.03333419 0.53589508
v 0.05543273 0.02296096 0.49589512
v 0.05543273 0.02296096 0.53589508
v 0.05884706 0.01170539 0.49589512
v 0.05884706 0.01170539 0.53589508
v 0.05999994 0 0.49589512
v 0.05999994 0 0.53589508
v 0.05884706 -0.01170539 0.49589512
v 0.05884706 -0.01170539 0.53589508
v 0.05543273 -0.02296096 0.49589512
v 0.05543273 -0.02296096 0.53589508
v 0.04988813 -0.03333419 0.49589512
v 0.04988813 -0.03333419 0.53589508
v 0.04242634 -0.04242634 0.49589512
v 0.04242634 -0.04242634 0.53589508
v 0.03333419 -0.04988813 0.49589512
v 0.03333419 -0.04988813 0.53589508
v 0.02296096 -0.05543273 0.49589512
v 0.02296096 -0.05543273 0.53589508
v 0.01170539 -0.05884706 0.49589512
v 0.01170539 -0.05884706 0.53589508
v 0 -0.05999994 0.49589512
v 0 -0.05999994 0.53589508
v -0.01170539 -0.05884706 0.49589512
v -0.01170539 -0.05884706 0.53589508
v -0.02296102 -0.05543273 0.49589512
v -0.02296102 -0.05543273 0.53589508
v -0.03333419 -0.04988813 0.49589512
v -0.03333419 -0.04988813 0.53589508
v -0.0424264 -0.04242634 0.49589512
v -0.0424264 -0.04242634 0.53589508
v -0.04988819 -0.03333413 0.49589512
v -0.04988819 -0.03333413 0.53589508
v -0.05543273 -0.02296096 0.49589512
v -0.05543273 -0.02296096 0.53589508
v -0.05884706 -0.01170533 0.49589512
v -0.05884706 -0.01170533 0.53589508
v -0.05999994 0 0.49589512
v -0.05999994 0 0.53589508
v -0.05884706 0.01170545 0.49589512
v -0.05884706 0.01170545 0.53589508
v -0.05543273 0.02296102 0.49589512
v -0.05543273 0.02296102 0.53589508
v -0.04988813 0.03333425 0.49589512
v -0.04988813 0.03333425 0.53589508
v -0.04242634 0.0424264 0.49589512
v -0.04242634 0.0424264 0.53589508
v -0.03333413 0.04988819 0.49589512
v -0.03333413 0.04988819 0.53589508
v -0.0229609 0.05543279 0.49589512
v -0.0229609 0.05543279 0.53589508
v -0.01170527 0.05884712 0.49589512
v -0.01170527 0.05884712 0.53589508
vn 0.09802 0.99518 0
vn 0.29028 0.95694 0
vn 0.4714 0.88192 0
vn 0.63439 0.77301 0
vn 0.77301 0.63439 0
vn 0.88192 0.4714 0
vn 0.95694 0.29028 0
vn 0.99518 0.09802 0
vn 0.99518 -0.09802 0
vn 0.95694 -0.29028 0
vn 0.88192 -0.4714 0
vn 0.77301 -0.63439 0
vn 0.63439 -0.77301 0
vn 0.4714 -0.88192 0
vn 0.29028 -0.95694 0
vn 0.09802 -0.99518 0
vn -0.09802 -0.99518 0
vn -0.29029 -0.95694 0
vn -0.4714 -0.88192 0
vn -0.63439 -0.77301 0
vn -0.77301 -0.63439 0
vn -0.88192 -0.4714 0
vn -0.95694 -0.29028 0
vn -0.99518 -0.09802 0
vn -0.99518 0.09802 0
vn -0.95694 0.29029 0
vn -0.88192 0.4714 0
vn -0.77301 0.63439 0
vn -0.63439 0.77301 0
vn -0.4714 0.88192 0
vn 0 0 1
vn -0.29028 0.95694 0
vn -0.09802 0.99518 0
vn 0 0 -1
vn 0.29028 0.95694 0
vn 0.4714 0.88192 0
vn 0.63439 0.77301 0
vn 0.77301 0.63439 0
vn 0.95694 0.29028 0
vn 0.99518 -0.09802 0
vn 0.77301 -0.63439 0
vn 0.63439 -0.77301 0
vn 0.4714 -0.88192 0
vn 0.29028 -0.95694 0
vn -0.29029 -0.95694 0
vn -0.4714 -0.88192 0
vn -0.88192 -0.4714 0
vn -0.88192 0.4714 0
vn -0.77301 0.63439 0
vn -0.4714 0.88192 0
vn -0 0 1
vn 0 0 1
vn 0 0 1
vn -0 0 1
vn 0 0 1
vn -0 0 1
vn 0 0 1
vn -0 0 1
vn -0 0 1
vn 0 0 1
vn -0 0 1
vn -0 0 -1
vn -0 0 -1
vn 0 0 -1
vn -0 0 -1
vn -0 0 -1
vn -0 0 -1
vn 0 0 -1
vn 0 0 -1
vn 0 0 -1
vn -0 0 -1
usemtl mat1
f 38//33 39//33 37//33
f 40//34 41//34 39//34
f 42//35 43//35 41//35
f 44//36 45//36 43//36
f 46//37 47//37 45//37
f 48//38 49//38 47//38
f 50//39 51//39 49//39
f 52//40 53//40 51//40
f 54//41 55//41 53//41
f 56//42 57//42 55//42
f 58//43 59//43 57//43
f 60//44 61//44 59//44
f 62//45 63//45 61//45
f 64//46 65//46 63//46
f 66//47 67//47 65//47
f 68//48 69//48 67//48
f 70//49 71//49 69//49
f 72//50 73//50 71//50
f 74//51 75//51 73//51
f 76//52 77//52 75//52
f 78//53 79//53 77//53
f 80//54 81//54 79//54
f 82//55 83//55 81//55
f 84//56 85//56 83//56
f 86//57 87//57 85//57
f 88//58 89//58 87//58
f 90//59 91//59 89//59
f 92//60 93//60 91//60
f 94//61 95//61 93//61
f 96//62 97//62 95//62
f 74//63 58//63 42//63
f 98//64 99//64 97//64
f 100//65 37//65 99//65
f 67//66 83//66 99//66
f 38//33 40//33 39//33
f 40//67 42//67 41//67
f 42//68 44//68 43//68
f 44//69 46//69 45//69
f 46//70 48//70 47//70
f 48//38 50//38 49//38
f 50//71 52//71 51//71
f 52//40 54//40 53//40
f 54//72 56//72 55//72
f 56//42 58//42 57//42
f 58//43 60//43 59//43
f 60//73 62//73 61//73
f 62//74 64//74 63//74
f 64//75 66//75 65//75
f 66//76 68//76 67//76
f 68//48 70//48 69//48
f 70//49 72//49 71//49
f 72//77 74//77 73//77
f 74//78 76//78 75//78
f 76//52 78//52 77//52
f 78//53 80//53 79//53
f 80//79 82//79 81//79
f 82//55 84//55 83//55
f 84//56 86//56 85//56
f 86//57 88//57 87//57
f 88//58 90//58 89//58
f 90//80 92//80 91//80
f 92//81 94//81 93//81
f 94//61 96//61 95//61
f 96//82 98//82 97//82
f 42//63 40//63 98//63
f 40//63 38//63 98//63
f 38//63 100//63 98//63
f 98//83 96//83 94//83
f 94//84 92//84 90//84
f 90//63 88//63 86//63
f 86//63 84//63 82//63
f 82//84 80//84 78//84
f 78//83 76//83 74//83
f 74//85 72//85 70//85
f 70//63 68//63 66//63
f 66//63 64//63 62//63
f 62//84 60//84 58//84
f 58//86 56//86 54//86
f 54//87 52//87 58//87
f 52//88 50//88 58//88
f 50//63 48//63 46//63
f 46//89 44//89 42//89
f 98//63 94//63 42//63
f 94//63 90//63 42//63
f 90//90 86//90 82//90
f 82//90 78//90 74//90
f 74//63 70//63 58//63
f 70//63 66//63 58//63
f 66//91 62//91 58//91
f 50//92 46//92 58//92
f 46//93 42//93 58//93
f 90//63 82//63 42//63
f 82//63 74//63 42//63
f 98//64 100//64 99//64
f 100//65 38//65 37//65
f 99//66 37//66 39//66
f 39//66 41//66 43//66
f 43//66 45//66 51//66
f 45//66 47//66 51//66
f 47//94 49//94 51//94
f 51//66 53//66 55//66
f 55//66 57//66 51//66
f 57//66 59//66 51//66
f 59//95 61//95 67//95
f 61//96 63//96 67//96
f 63//97 65//97 67//97
f 67//66 69//66 71//66
f 71//66 73//66 75//66
f 75//98 77//98 79//98
f 79//99 81//99 83//99
f 83//66 85//66 87//66
f 87//100 89//100 91//100
f 91//66 93//66 95//66
f 95//97 97//97 99//97
f 99//66 39//66 51//66
f 39//66 43//66 51//66
f 67//66 71//66 75//66
f 75//66 79//66 83//66
f 83//101 87//101 91//101
f 91//102 95//102 99//102
f 51//66 59//66 67//66
f 67//66 75//66 83//66
f 83//103 91//103 99//103
f 99//66 51//66 67//66
# Vertices: 64, normals: 71, texture coordinates: 0, faces: 124

o obj3
v -0.03006374 0.19557619 -0.0387694
v -0.03006374 0.19557619 0.2875098
v -0.03006374 0.29557621 -0.0387694
v -0.03006374 0.29557621 0.2875098
v 0.03006374 0.19557619 -0.0387694
v 0.03006374 0.19557619 0.2875098
v 0.03006374 0.29557621 -0.0387694
v 0.03006374 0.29557621 0.2875098
v -0.03006374 0.19557619 0.2467249
v 0.03006374 0.19557619 0.2467249
v 0.03006374 0.19557619 -0.0028787
v -0.03006374 0.19557619 -0.0028787
v 0.03006374 0.27301513 0.2467249
v -0.03006374 0.27301513 0.2467249
v -0.03006374 0.27301513 -0.0028787
v 0.03006374 0.27301513 -0.0028787
vn -1 0 0
vn 0 -1 0
vn 1 0 0
vn 0 0 -1
vn 0 0 1
vn 0 1 0
usemtl mat1
f 114//104 104//104 103//104
f 106//105 109//105 110//105
f 113//106 116//106 107//106
f 107//107 101//107 103//107
f 113//105 115//105 116//105
f 112//108 116//108 115//108
f 111//105 101//105 105//105
f 104//109 107//109 103//109
f 109//107 113//107 110//107
f 104//108 106//108 108//108
f 103//104 101//104 115//104
f 101//104 112//104 115//104
f 109//104 102//104 114//104
f 102//104 104//104 114//104
f 103//104 115//104 114//104
f 106//105 102//105 109//105
f 108//106 106//106 113//106
f 106//106 110//106 113//106
f 111//106 105//106 116//106
f 105//106 107//106 116//106
f 108//106 113//106 107//106
f 107//107 105//107 101//107
f 113//105 114//105 115//105
f 112//108 111//108 116//108
f 111//105 112//105 101//105
f 104//109 108//109 107//109
f 109//107 114//107 113//107
f 104//108 102//108 106//108
# Vertices: 16, normals: 6, texture coordinates: 0, faces: 28

o obj4
v -0.1756045 0.22795963 -0.4145338
v -0.2 0.22795963 -0.3998965
v -0.1756045 0.2401574 -0.3998965
v -0.1831445 0.22795963 -0.4138171
v -0.1899414 0.22795963 -0.4117394
v -0.1756045 0.23172968 -0.4138171
v -0.183388 0.23182958 -0.4129684
v -0.189611 0.23170345 -0.4110069
v -0.1756045 0.2351281 -0.4117394
v -0.1831115 0.23496913 -0.4109965
v -0.1885126 0.23441368 -0.4096065
v -0.1988055 0.23172968 -0.3998965
v -0.1953426 0.2351281 -0.3998965
v -0.1988055 0.22795963 -0.4044205
v -0.197391 0.23185139 -0.4045404
v -0.1941218 0.23496293 -0.404389
v -0.1953426 0.22795963 -0.4084986
v -0.1941046 0.23171311 -0.4083079
v -0.1917878 0.23441368 -0.4076414
v -0.1756045 0.23956012 -0.4044205
v -0.1756045 0.23782867 -0.4084986
v -0.1831445 0.23956012 -0.3998965
v -0.1833444 0.23885285 -0.4045666
v -0.1830921 0.23721831 -0.4083004
v -0.1899414 0.23782867 -0.3998965
v -0.1896235 0.23720967 -0.4044007
v -0.1885126 0.23605131 -0.4076414
v -0.1756045 0.22795963 -0.1745338
v -0.1756045 0.2401574 -0.1891711
v -0.2 0.22795963 -0.1891711
v -0.1756045 0.23172968 -0.1752505
v -0.1756045 0.2351281 -0.1773282
v -0.1831445 0.22795963 -0.1752505
v -0.1833444 0.23185139 -0.1760992
v -0.1830921 0.23496293 -0.1780607
v -0.1899414 0.22795963 -0.1773282
v -0.1896235 0.23171311 -0.1780711
v -0.1885126 0.23441368 -0.1794611
v -0.1831445 0.23956012 -0.1891711
v -0.1899414 0.23782867 -0.1891711
v -0.1756045 0.23956012 -0.1846471
v -0.183388 0.23885285 -0.1845272
v -0.189611 0.23721831 -0.1846786
v -0.1756045 0.23782867 -0.180569
v -0.1831115 0.23720967 -0.1807597
v -0.1885126 0.23605131 -0.1814262
v -0.1988055 0.22795963 -0.1846471
v -0.1953426 0.22795963 -0.180569
v -0.1988055 0.23172968 -0.1891711
v -0.197391 0.23182958 -0.184501
v -0.1941218 0.23170345 -0.1807672
v -0.1953426 0.2351281 -0.1891711
v -0.1941046 0.23496913 -0.1846669
v -0.1917878 0.23441368 -0.1814262
v 0.1756045 0.22795963 -0.4145338
v 0.1756045 0.2401574 -0.3998965
v 0.2 0.22795963 -0.3998965
v 0.1756045 0.23172968 -0.4138171
v 0.1756045 0.2351281 -0.4117394
v 0.1831445 0.22795963 -0.4138171
v 0.1833444 0.23185139 -0.4129684
v 0.1830921 0.23496293 -0.4110069
v 0.1899414 0.22795963 -0.4117394
v 0.1896235 0.23171311 -0.4109965
v 0.1885126 0.23441368 -0.4096065
v 0.1831445 0.23956012 -0.3998965
v 0.1899414 0.23782867 -0.3998965
v 0.1756045 0.23956012 -0.4044205
v 0.183388 0.23885285 -0.4045404
v 0.189611 0.23721831 -0.404389
v 0.1756045 0.23782867 -0.4084986
v 0.1831115 0.23720967 -0.4083079
v 0.1885126 0.23605131 -0.4076414
v 0.1988055 0.22795963 -0.4044205
v 0.1953426 0.22795963 -0.4084986
v 0.1988055 0.23172968 -0.3998965
v 0.197391 0.23182958 -0.4045666
v 0.1941218 0.23170345 -0.4083004
v 0.1953426 0.2351281 -0.3998965
v 0.1941046 0.23496913 -0.4044007
v 0.1917878 0.23441368 -0.4076414
v 0.1756045 0.22795963 -0.1745338
v 0.2 0.22795963 -0.1891711
v 0.1756045 0.2401574 -0.1891711
v 0.1831445 0.22795963 -0.1752505
v 0.1899414 0.22795963 -0.1773282
v 0.1756045 0.23172968 -0.1752505
v 0.183388 0.23182958 -0.1760992
v 0.189611 0.23170345 -0.1780607
v 0.1756045 0.2351281 -0.1773282
v 0.1831115 0.23496913 -0.1780711
v 0.1885126 0.23441368 -0.1794611
v 0.1988055 0.23172968 -0.1891711
v 0.1953426 0.2351281 -0.1891711
v 0.1988055 0.22795963 -0.1846471
v 0.197391 0.23185139 -0.1845272
v 0.1941218 0.23496293 -0.1846786
v 0.1953426 0.22795963 -0.180569
v 0.1941046 0.23171311 -0.1807597
v 0.1917878 0.23441368 -0.1814262
v 0.1756045 0.23956012 -0.1846471
v 0.1756045 0.23782867 -0.180569
v 0.1831445 0.23956012 -0.1891711
v 0.1833444 0.23885285 -0.184501
v 0.1830921 0.23721831 -0.1807672
v 0.1899414 0.23782867 -0.1891711
v 0.1896235 0.23720967 -0.1846669
v 0.1885126 0.23605131 -0.1814262
v -0.1756045 0.13993455 -0.4145338
v -0.1831445 0.13993455 -0.4138171
v -0.1899414 0.13993455 -0.4117394
v -0.1953426 0.13993455 -0.4084986
v -0.1988055 0.13993455 -0.4044205
v -0.2 0.13993455 -0.3998965
v -0.1756045 0.13993455 -0.1745338
v -0.1831445 0.13993455 -0.1752505
v -0.1899414 0.13993455 -0.1773282
v -0.1953426 0.13993455 -0.180569
v -0.1988055 0.13993455 -0.1846471
v -0.2 0.13993455 -0.1891711
v 0.1756045 0.13993455 -0.4145338
v 0.1831445 0.13993455 -0.4138171
v 0.1899414 0.13993455 -0.4117394
v 0.1953426 0.13993455 -0.4084986
v 0.1988055 0.13993455 -0.4044205
v 0.2 0.13993455 -0.3998965
v 0.1756045 0.13993455 -0.1745338
v 0.1831445 0.13993455 -0.1752505
v 0.1899414 0.13993455 -0.1773282
v 0.1953426 0.13993455 -0.180569
v 0.1988055 0.13993455 -0.1846471
v 0.2 0.13993455 -0.1891711
vn -1 0 0
vn 0 1 0
vn -0.09298 0.18595 -0.97815
vn -0.28713 0.18793 -0.93928
vn -0.50325 0.20848 -0.83861
vn -0.08601 0.51969 -0.85002
vn -0.26208 0.52972 -0.80666
vn -0.43106 0.54592 -0.71844
vn -0.92446 0.29291 -0.24408
vn -0.68753 0.70057 -0.19106
vn -0.44198 0.88395 -0.1526
vn -0.73825 0.24901 -0.62688
vn -0.57432 0.6289 -0.52406
vn -0.40491 0.80847 -0.4271
vn -0.07829 0.98836 -0.13048
vn -0.07651 0.91777 -0.38966
vn -0.07932 0.76575 -0.63823
vn -0.2446 0.96019 -0.13495
vn -0.24199 0.88441 -0.39908
vn -0.23634 0.74646 -0.62205
vn -0.35857 0.71714 -0.59761
vn -0.09297 0.18595 0.97815
vn -0.08504 0.51973 0.85009
vn -0.07932 0.7658 0.63817
vn -0.28701 0.19001 0.93889
vn -0.26544 0.52532 0.80844
vn -0.23644 0.74593 0.62264
vn -0.07829 0.98836 0.13048
vn -0.24465 0.96038 0.13344
vn -0.44204 0.88392 0.1526
vn -0.08552 0.9171 0.38937
vn -0.23919 0.88345 0.40288
vn -0.40443 0.80886 0.42683
vn -0.92446 0.29291 0.24408
vn -0.73877 0.24635 0.62732
vn -0.50319 0.20848 0.83865
vn -0.68723 0.70028 0.19317
vn -0.57432 0.62888 0.52409
vn -0.4315 0.54618 0.71798
vn -0.35857 0.71714 0.59761
vn 0 -1 0
vn 0.09297 0.18595 -0.97815
vn 0.08504 0.51973 -0.85009
vn 0.07932 0.7658 -0.63817
vn 0.28701 0.19001 -0.93889
vn 0.26544 0.52532 -0.80844
vn 0.23644 0.74593 -0.62264
vn 0.07829 0.98836 -0.13048
vn 0.24465 0.96038 -0.13344
vn 0.44204 0.88392 -0.1526
vn 0.08552 0.9171 -0.38937
vn 0.23919 0.88345 -0.40288
vn 0.40443 0.80886 -0.42683
vn 0.92446 0.29291 -0.24408
vn 0.73877 0.24635 -0.62732
vn 0.50319 0.20848 -0.83865
vn 0.68723 0.70028 -0.19317
vn 0.57432 0.62888 -0.52409
vn 0.4315 0.54618 -0.71798
vn 0.35857 0.71714 -0.59761
vn 0.09298 0.18595 0.97815
vn 0.28713 0.18793 0.93928
vn 0.50325 0.20848 0.83861
vn 0.08601 0.51969 0.85002
vn 0.26208 0.52972 0.80666
vn 0.43106 0.54592 0.71844
vn 0.92446 0.29291 0.24408
vn 0.68753 0.70057 0.19106
vn 0.44198 0.88395 0.1526
vn 0.73825 0.24901 0.62688
vn 0.57432 0.6289 0.52406
vn 0.40491 0.80847 0.4271
vn 0.07829 0.98836 0.13048
vn 0.07651 0.91777 0.38966
vn 0.07932 0.76575 0.63823
vn 0.2446 0.96019 0.13495
vn 0.24199 0.88441 0.39908
vn 0.23634 0.74646 0.62205
vn 0.35857 0.71714 0.59761
vn -0.09462 0 0.99551
vn -0.29234 0 0.95631
vn -0.5145 0 0.85749
vn -0.76226 0 0.64727
vn -0.96687 0 0.25528
vn -0.07896 0.99688 0
vn -0.24686 0.96905 0
vn -0.44721 0.89443 0
vn -0.70043 0.71372 0
vn -0.9533 0.30204 0
vn 0 0.18676 -0.98241
vn 0 0.52162 -0.85318
vn 0 0.76822 -0.64018
vn 0 0.92047 -0.39081
vn 0 0.9914 -0.13088
vn 0 0.18676 0.98241
vn 0 0.52162 0.85318
vn 0 0.76822 0.64018
vn 0 0.92047 0.39081
vn 0 0.9914 0.13088
vn 0.9533 0.30203 0
vn 0.70043 0.71372 0
vn 0.44721 0.89443 0
vn 0.24686 0.96905 0
vn 0.07896 0.99688 0
vn 0.09462 0 -0.99551
vn 0.29234 0 -0.95631
vn 0.5145 0 -0.85749
vn 0.76226 0 -0.64727
vn 0.96687 0 -0.25528
vn 0 0 -1
vn 0.96687 0 0.25528
vn 0.76226 0 0.64727
vn 0.5145 0 0.85749
vn 0.29234 0 0.95631
vn 0.09462 0 0.99551
vn -0.96687 0 -0.25528
vn -0.76226 0 -0.64727
vn -0.5145 0 -0.85749
vn -0.29234 0 -0.95631
vn -0.09462 0 -0.99551
vn 0 0 1
vn 1 0 0
vn -0.10343 0.20686 -0.97289
vn -0.29785 0.20854 -0.93156
vn -0.50318 0.20859 -0.83863
vn -0.09438 0.53544 -0.83928
vn -0.26546 0.52531 -0.80844
vn -0.43034 0.5465 -0.71843
vn -0.90805 0.32178 -0.26816
vn -0.66926 0.71329 -0.20808
vn -0.44191 0.88397 -0.15268
vn -0.72063 0.27014 -0.63853
vn -0.57963 0.626 -0.52168
vn -0.40427 0.80854 -0.42759
vn -0.08731 0.9855 -0.14551
vn -0.08494 0.91063 -0.40439
vn -0.07936 0.7658 -0.63817
vn -0.25402 0.95561 -0.14926
vn -0.23919 0.88343 -0.40291
vn -0.23673 0.74689 -0.62138
vn -0.10343 0.20686 0.97289
vn -0.09388 0.53636 0.83875
vn -0.07936 0.76585 0.6381
vn -0.29715 0.20952 0.93156
vn -0.26208 0.52975 0.80665
vn -0.23682 0.74637 0.62197
vn -0.08731 0.9855 0.14551
vn -0.25461 0.95557 0.14855
vn -0.44197 0.88394 0.15268
vn -0.07664 0.91184 0.40333
vn -0.24201 0.8844 0.39908
vn -0.40379 0.80892 0.42731
vn -0.90805 0.32178 0.26816
vn -0.72019 0.2687 0.63963
vn -0.50312 0.20859 0.83867
vn -0.66993 0.71232 0.20927
vn -0.57963 0.62601 0.52167
vn -0.43078 0.54675 0.71797
vn 0.10343 0.20686 -0.97289
vn 0.09388 0.53636 -0.83875
vn 0.07936 0.76585 -0.6381
vn 0.29715 0.20952 -0.93156
vn 0.26208 0.52975 -0.80665
vn 0.23682 0.74637 -0.62197
vn 0.08731 0.9855 -0.14551
vn 0.25461 0.95557 -0.14855
vn 0.44197 0.88394 -0.15268
vn 0.07664 0.91184 -0.40333
vn 0.24201 0.8844 -0.39908
vn 0.40379 0.80892 -0.42731
vn 0.90805 0.32178 -0.26816
vn 0.72019 0.2687 -0.63963
vn 0.50312 0.20859 -0.83867
vn 0.66993 0.71232 -0.20927
vn 0.57963 0.62601 -0.52167
vn 0.43078 0.54675 -0.71797
vn 0.10343 0.20686 0.97289
vn 0.29785 0.20854 0.93156
vn 0.50318 0.20859 0.83863
vn 0.09438 0.53544 0.83928
vn 0.26546 0.52531 0.80844
vn 0.43034 0.5465 0.71843
vn 0.90805 0.32178 0.26816
vn 0.66926 0.71329 0.20808
vn 0.44191 0.88397 0.15268
vn 0.72063 0.27014 0.63853
vn 0.57963 0.626 0.52168
vn 0.40427 0.80854 0.42759
vn 0.08731 0.9855 0.14551
vn 0.08494 0.91063 0.40439
vn 0.07936 0.7658 0.63817
vn 0.25402 0.95561 0.14926
vn 0.23919 0.88343 0.40291
vn 0.23673 0.74689 0.62138
vn -0.09462 0 0.99551
vn -0.51449 0 0.85749
vn -0.76226 0 0.64727
vn -0.96687 0 0.25528
vn -0.07896 0.99688 0
vn -0.24686 0.96905 0
vn -0.44721 0.89443 0
vn -0.9533 0.30204 0
vn 0 0.18676 -0.98241
vn 0 0.92047 -0.39081
vn 0 0.9914 -0.13088
vn 0 0.18676 0.98241
vn 0 0.92047 0.39081
vn 0 0.9914 0.13088
vn 0.95329 0.30204 0
vn 0.44721 0.89443 0
vn 0.24686 0.96905 0
vn 0.07896 0.99688 0
vn 0.09462 0 -0.99551
vn 0.51449 0 -0.85749
vn 0.76226 0 -0.64727
vn 0.96687 0 -0.25528
vn 0.96687 0 0.25528
vn 0.76226 0 0.64727
vn 0.51449 0 0.85749
vn 0.09462 0 0.99551
vn -0.96687 0 -0.25528
vn -0.76226 0 -0.64727
vn -0.51449 0 -0.85749
vn -0.09462 0 -0.99551
usemtl mat1
f 236//110 118//110 230//110
f 145//111 172//111 119//111
f 120//112 122//112 117//112
f 121//113 123//113 120//113
f 121//114 134//114 124//114
f 123//115 125//115 122//115
f 123//116 127//116 126//116
f 124//117 135//117 127//117
f 128//118 130//118 118//118
f 129//119 131//119 128//119
f 141//120 132//120 129//120
f 131//121 133//121 130//121
f 132//122 134//122 131//122
f 142//123 135//123 132//123
f 136//124 138//124 119//124
f 137//125 139//125 136//125
f 137//126 126//126 140//126
f 139//127 141//127 138//127
f 139//128 143//128 142//128
f 140//129 127//129 143//129
f 127//130 135//130 143//130
f 147//131 149//131 144//131
f 148//132 150//132 147//132
f 160//133 151//133 148//133
f 150//134 152//134 149//134
f 150//135 154//135 153//135
f 161//136 154//136 151//136
f 155//137 157//137 145//137
f 156//138 158//138 155//138
f 156//139 169//139 159//139
f 157//140 161//140 160//140
f 158//141 162//141 161//141
f 159//142 170//142 162//142
f 163//143 165//143 146//143
f 164//144 166//144 163//144
f 152//145 167//145 164//145
f 166//146 168//146 165//146
f 167//147 169//147 166//147
f 153//148 170//148 167//148
f 154//149 162//149 170//149
f 227//150 226//150 230//150
f 174//151 176//151 171//151
f 175//152 177//152 174//152
f 187//153 178//153 175//153
f 177//154 179//154 176//154
f 177//155 181//155 180//155
f 188//156 181//156 178//156
f 182//157 184//157 172//157
f 183//158 185//158 182//158
f 183//159 196//159 186//159
f 184//160 188//160 187//160
f 185//161 189//161 188//161
f 186//162 197//162 189//162
f 190//163 192//163 173//163
f 191//164 193//164 190//164
f 179//165 194//165 191//165
f 193//166 195//166 192//166
f 194//167 196//167 193//167
f 180//168 197//168 194//168
f 181//169 189//169 197//169
f 201//170 203//170 198//170
f 202//171 204//171 201//171
f 202//172 215//172 205//172
f 204//173 206//173 203//173
f 204//174 208//174 207//174
f 205//175 216//175 208//175
f 209//176 211//176 199//176
f 210//177 212//177 209//177
f 222//178 213//178 210//178
f 212//179 214//179 211//179
f 213//180 215//180 212//180
f 223//181 216//181 213//181
f 217//182 219//182 200//182
f 218//183 220//183 217//183
f 218//184 207//184 221//184
f 220//185 222//185 219//185
f 220//186 224//186 223//186
f 221//187 208//187 224//187
f 208//188 216//188 224//188
f 231//189 149//189 232//189
f 149//190 233//190 232//190
f 152//191 234//191 233//191
f 164//192 235//192 234//192
f 163//193 236//193 235//193
f 119//194 155//194 145//194
f 138//195 156//195 155//195
f 141//196 168//196 156//196
f 129//197 165//197 168//197
f 128//198 146//198 165//198
f 117//199 174//199 171//199
f 122//200 175//200 174//200
f 125//201 187//201 175//201
f 137//202 184//202 187//202
f 136//203 172//203 184//203
f 198//204 147//204 144//204
f 203//205 148//205 147//205
f 206//206 160//206 148//206
f 218//207 157//207 160//207
f 217//208 145//208 157//208
f 173//209 209//209 199//209
f 192//210 210//210 209//210
f 195//211 222//211 210//211
f 183//212 219//212 222//212
f 182//213 200//213 219//213
f 237//214 176//214 238//214
f 176//215 239//215 238//215
f 179//216 240//216 239//216
f 191//217 241//217 240//217
f 190//218 242//218 241//218
f 171//219 225//219 117//219
f 211//220 248//220 199//220
f 246//221 211//221 214//221
f 245//222 214//222 202//222
f 244//223 202//223 201//223
f 243//224 201//224 198//224
f 130//225 230//225 118//225
f 228//226 130//226 133//226
f 227//227 133//227 121//227
f 226//228 121//228 120//228
f 225//229 120//229 117//229
f 144//230 243//230 198//230
f 199//231 242//231 173//231
f 236//110 146//110 118//110
f 145//111 200//111 172//111
f 120//232 123//232 122//232
f 121//233 124//233 123//233
f 121//234 133//234 134//234
f 123//235 126//235 125//235
f 123//236 124//236 127//236
f 124//237 134//237 135//237
f 128//238 131//238 130//238
f 129//239 132//239 131//239
f 141//240 142//240 132//240
f 131//241 134//241 133//241
f 132//242 135//242 134//242
f 142//243 143//243 135//243
f 136//244 139//244 138//244
f 137//245 140//245 139//245
f 137//246 125//246 126//246
f 139//247 142//247 141//247
f 139//248 140//248 143//248
f 140//249 126//249 127//249
f 147//250 150//250 149//250
f 148//251 151//251 150//251
f 160//252 161//252 151//252
f 150//253 153//253 152//253
f 150//254 151//254 154//254
f 161//255 162//255 154//255
f 155//256 158//256 157//256
f 156//257 159//257 158//257
f 156//258 168//258 169//258
f 157//259 158//259 161//259
f 158//260 159//260 162//260
f 159//261 169//261 170//261
f 163//262 166//262 165//262
f 164//263 167//263 166//263
f 152//264 153//264 167//264
f 166//265 169//265 168//265
f 167//266 170//266 169//266
f 153//267 154//267 170//267
f 225//150 237//150 243//150
f 237//150 238//150 242//150
f 243//150 237//150 242//150
f 238//150 239//150 242//150
f 239//150 240//150 242//150
f 240//150 241//150 242//150
f 242//150 248//150 243//150
f 248//150 247//150 246//150
f 243//150 248//150 244//150
f 246//150 245//150 248//150
f 245//150 244//150 248//150
f 243//150 231//150 225//150
f 231//150 232//150 236//150
f 225//150 231//150 236//150
f 232//150 233//150 236//150
f 233//150 234//150 236//150
f 234//150 235//150 236//150
f 236//150 230//150 225//150
f 230//150 229//150 228//150
f 225//150 230//150 226//150
f 228//150 227//150 230//150
f 174//268 177//268 176//268
f 175//269 178//269 177//269
f 187//270 188//270 178//270
f 177//271 180//271 179//271
f 177//272 178//272 181//272
f 188//273 189//273 181//273
f 182//274 185//274 184//274
f 183//275 186//275 185//275
f 183//276 195//276 196//276
f 184//277 185//277 188//277
f 185//278 186//278 189//278
f 186//279 196//279 197//279
f 190//280 193//280 192//280
f 191//281 194//281 193//281
f 179//282 180//282 194//282
f 193//283 196//283 195//283
f 194//284 197//284 196//284
f 180//285 181//285 197//285
f 201//286 204//286 203//286
f 202//287 205//287 204//287
f 202//288 214//288 215//288
f 204//289 207//289 206//289
f 204//290 205//290 208//290
f 205//291 215//291 216//291
f 209//292 212//292 211//292
f 210//293 213//293 212//293
f 222//294 223//294 213//294
f 212//295 215//295 214//295
f 213//296 216//296 215//296
f 223//297 224//297 216//297
f 217//298 220//298 219//298
f 218//299 221//299 220//299
f 218//300 206//300 207//300
f 220//301 223//301 222//301
f 220//302 221//302 224//302
f 221//303 207//303 208//303
f 231//304 144//304 149//304
f 149//190 152//190 233//190
f 152//305 164//305 234//305
f 164//306 163//306 235//306
f 163//307 146//307 236//307
f 119//308 138//308 155//308
f 138//309 141//309 156//309
f 141//310 129//310 168//310
f 129//197 128//197 165//197
f 128//311 118//311 146//311
f 117//312 122//312 174//312
f 122//200 125//200 175//200
f 125//201 137//201 187//201
f 137//313 136//313 184//313
f 136//314 119//314 172//314
f 198//315 203//315 147//315
f 203//205 206//205 148//205
f 206//206 218//206 160//206
f 218//316 217//316 157//316
f 217//317 200//317 145//317
f 173//318 192//318 209//318
f 192//210 195//210 210//210
f 195//319 183//319 222//319
f 183//320 182//320 219//320
f 182//321 172//321 200//321
f 237//322 171//322 176//322
f 176//215 179//215 239//215
f 179//323 191//323 240//323
f 191//324 190//324 241//324
f 190//325 173//325 242//325
f 171//219 237//219 225//219
f 211//326 247//326 248//326
f 246//327 247//327 211//327
f 245//328 246//328 214//328
f 244//223 245//223 202//223
f 243//329 244//329 201//329
f 130//330 229//330 230//330
f 228//331 229//331 130//331
f 227//332 228//332 133//332
f 226//228 227//228 121//228
f 225//333 226//333 120//333
f 144//230 231//230 243//230
f 199//231 248//231 242//231
# Vertices: 132, normals: 224, texture coordinates: 0, faces: 260

o obj5
v -0.09853088 0.25999748 -0.30281053
v -0.09853088 0.21999752 -0.30281053
v -0.09267818 0.25999748 -0.30338697
v -0.09267818 0.21999752 -0.30338697
v -0.08705043 0.25999748 -0.30509417
v -0.08705043 0.21999752 -0.30509417
v -0.08186382 0.25999748 -0.30786644
v -0.08186382 0.21999752 -0.30786644
v -0.07731771 0.25999748 -0.31159733
v -0.07731771 0.21999752 -0.31159733
v -0.07358682 0.25999748 -0.31614344
v -0.07358682 0.21999752 -0.31614344
v -0.07081455 0.25999748 -0.32133005
v -0.07081455 0.21999752 -0.32133005
v -0.06910735 0.25999748 -0.3269578
v -0.06910735 0.21999752 -0.3269578
v -0.06853091 0.25999748 -0.3328105
v -0.06853091 0.21999752 -0.3328105
v -0.06910735 0.25999748 -0.3386632
v -0.06910735 0.21999752 -0.3386632
v -0.07081455 0.25999748 -0.34429095
v -0.07081455 0.21999752 -0.34429095
v -0.07358682 0.25999748 -0.34947756
v -0.07358682 0.21999752 -0.34947756
v -0.07731771 0.25999748 -0.35402367
v -0.07731771 0.21999752 -0.35402367
v -0.08186382 0.25999748 -0.35775456
v -0.08186382 0.21999752 -0.35775456
v -0.08705043 0.25999748 -0.36052683
v -0.08705043 0.21999752 -0.36052683
v -0.09267818 0.25999748 -0.36223403
v -0.09267818 0.21999752 -0.36223403
v -0.09853088 0.25999748 -0.36281047
v -0.09853088 0.21999752 -0.36281047
v -0.10438358 0.25999748 -0.36223403
v -0.10438358 0.21999752 -0.36223403
v -0.11001139 0.25999748 -0.36052683
v -0.11001139 0.21999752 -0.36052683
v -0.11519794 0.25999748 -0.35775456
v -0.11519794 0.21999752 -0.35775456
v -0.11974405 0.25999748 -0.35402367
v -0.11974405 0.21999752 -0.35402367
v -0.12347494 0.25999748 -0.34947756
v -0.12347494 0.21999752 -0.34947756
v -0.12624727 0.25999748 -0.34429095
v -0.12624727 0.21999752 -0.34429095
v -0.12795441 0.25999748 -0.33866314
v -0.12795441 0.21999752 -0.33866314
v -0.12853085 0.25999748 -0.3328105
v -0.12853085 0.21999752 -0.3328105
v -0.12795441 0.25999748 -0.3269578
v -0.12795441 0.21999752 -0.3269578
v -0.12624721 0.25999748 -0.32132999
v -0.12624721 0.21999752 -0.32132999
v -0.12347494 0.25999748 -0.31614338
v -0.12347494 0.21999752 -0.31614338
v -0.11974405 0.25999748 -0.31159727
v -0.11974405 0.21999752 -0.31159733
v -0.11519794 0.25999748 -0.30786644
v -0.11519794 0.21999752 -0.30786644
v -0.11001133 0.25999748 -0.30509411
v -0.11001133 0.21999752 -0.30509411
v -0.10438352 0.25999748 -0.30338697
v -0.10438352 0.21999752 -0.30338697
vn 0.09802 0 0.99518
vn 0.29028 0 0.95694
vn 0.4714 0 0.88192
vn 0.63439 0 0.77301
vn 0.77301 0 0.63439
vn 0.88192 -0 0.4714
vn 0.95694 0 0.29028
vn 0.99518 0 0.09802
vn 0.99518 0 -0.09802
vn 0.95694 0 -0.29028
vn 0.88192 0 -0.4714
vn 0.77301 0 -0.63439
vn 0.63439 0 -0.77301
vn 0.4714 0 -0.88192
vn 0.29028 0 -0.95694
vn 0.09802 0 -0.99518
vn -0.09802 0 -0.99518
vn -0.29028 0 -0.95694
vn -0.4714 0 -0.88192
vn -0.63439 0 -0.77301
vn -0.77301 0 -0.63439
vn -0.88192 0 -0.4714
vn -0.95694 0 -0.29028
vn -0.99518 0 -0.09802
vn -0.99518 0 0.09802
vn -0.95694 -0 0.29029
vn -0.88192 0 0.4714
vn -0.77301 0 0.63439
vn -0.63439 0 0.77301
vn -0.4714 0 0.88192
vn 0 -1 0
vn -0.29028 0 0.95694
vn -0.09802 0 0.99518
vn 0 1 0
vn 0.29028 0 0.95694
vn 0.4714 0 0.88192
vn 0.77301 0 0.63439
vn 0.88192 0 0.4714
vn 0.95694 0 0.29028
vn 0.99518 0 0.09802
vn 0.95694 0 -0.29028
vn 0.88192 0 -0.4714
vn 0.77301 0 -0.63439
vn 0.63439 0 -0.77301
vn 0.4714 0 -0.88192
vn 0.29028 0 -0.95694
vn 0.09802 0 -0.99518
vn -0.09802 0 -0.99518
vn -0.29029 0 -0.95694
vn -0.77301 0 -0.63439
vn -0.88192 0 -0.4714
vn -0.95694 0 -0.29028
vn -0.99518 0 -0.09802
vn -0.99518 0 0.09802
vn -0.95694 0 0.29029
vn -0.88192 0 0.4714
vn -0.77301 0 0.63439
vn -0.63439 0 0.77301
vn -0.47139 0 0.88192
vn 0 -1 -0
vn 0 -1 0
vn 0 -1 0
vn -0 -1 -0
vn -0 -1 0
vn 0 -1 -0
vn 0 -1 0
vn 0 -1 0
vn -0 -1 -0
vn 0 -1 -0
vn 0 -1 0
vn 0 -1 0
vn 0 -1 -0
vn 0 -1 -0
vn 0 -1 -0
vn 0 -1 -0
vn -0.09802 0 0.99518
vn 0 1 -0
vn 0 1 0
vn 0 1 0
vn -0 1 0
vn 0 1 -0
vn 0 1 -0
vn 0 1 0
vn 0 1 0
vn -0 1 0
vn 0 1 -0
vn 0 1 0
vn 0 1 0
vn 0 1 0
vn 0 1 -0
usemtl mat1
f 250//334 251//334 249//334
f 252//335 253//335 251//335
f 254//336 255//336 253//336
f 256//337 257//337 255//337
f 258//338 259//338 257//338
f 260//339 261//339 259//339
f 262//340 263//340 261//340
f 264//341 265//341 263//341
f 266//342 267//342 265//342
f 268//343 269//343 267//343
f 270//344 271//344 269//344
f 272//345 273//345 271//345
f 274//346 275//346 273//346
f 276//347 277//347 275//347
f 278//348 279//348 277//348
f 280//349 281//349 279//349
f 282//350 283//350 281//350
f 284//351 285//351 283//351
f 286//352 287//352 285//352
f 288//353 289//353 287//353
f 289//354 292//354 291//354
f 292//355 293//355 291//355
f 294//356 295//356 293//356
f 295//357 298//357 297//357
f 297//358 300//358 299//358
f 300//359 301//359 299//359
f 301//360 304//360 303//360
f 304//361 305//361 303//361
f 305//362 308//362 307//362
f 308//363 309//363 307//363
f 286//364 270//364 254//364
f 309//365 312//365 311//365
f 312//366 249//366 311//366
f 279//367 295//367 311//367
f 250//334 252//334 251//334
f 252//368 254//368 253//368
f 254//369 256//369 255//369
f 256//337 258//337 257//337
f 258//370 260//370 259//370
f 260//371 262//371 261//371
f 262//372 264//372 263//372
f 264//373 266//373 265//373
f 266//342 268//342 267//342
f 268//374 270//374 269//374
f 270//375 272//375 271//375
f 272//376 274//376 273//376
f 274//377 276//377 275//377
f 276//378 278//378 277//378
f 278//379 280//379 279//379
f 280//380 282//380 281//380
f 282//381 284//381 283//381
f 284//382 286//382 285//382
f 286//352 288//352 287//352
f 288//353 290//353 289//353
f 289//383 290//383 292//383
f 292//384 294//384 293//384
f 294//385 296//385 295//385
f 295//386 296//386 298//386
f 297//387 298//387 300//387
f 300//388 302//388 301//388
f 301//389 302//389 304//389
f 304//390 306//390 305//390
f 305//391 306//391 308//391
f 308//392 310//392 309//392
f 254//364 252//364 310//364
f 252//364 250//364 310//364
f 250//393 312//393 310//393
f 310//364 308//364 306//364
f 306//364 304//364 302//364
f 302//394 300//394 298//394
f 298//364 296//364 294//364
f 294//395 292//395 290//395
f 290//396 288//396 294//396
f 288//397 286//397 294//397
f 286//398 284//398 282//398
f 282//399 280//399 278//399
f 278//400 276//400 274//400
f 274//401 272//401 270//401
f 270//402 268//402 266//402
f 266//364 264//364 270//364
f 264//364 262//364 270//364
f 262//403 260//403 258//403
f 258//364 256//364 254//364
f 310//404 306//404 254//404
f 306//405 302//405 254//405
f 302//364 298//364 294//364
f 286//406 282//406 270//406
f 282//364 278//364 270//364
f 278//407 274//407 270//407
f 262//364 258//364 270//364
f 258//408 254//408 270//408
f 302//364 294//364 286//364
f 254//364 302//364 286//364
f 309//365 310//365 312//365
f 312//409 250//409 249//409
f 311//367 249//367 255//367
f 249//410 251//410 255//410
f 251//411 253//411 255//411
f 255//412 257//412 263//412
f 257//413 259//413 263//413
f 259//367 261//367 263//367
f 263//367 265//367 267//367
f 267//367 269//367 263//367
f 269//367 271//367 263//367
f 271//414 273//414 279//414
f 273//367 275//367 279//367
f 275//415 277//415 279//415
f 279//411 281//411 283//411
f 283//411 285//411 287//411
f 287//416 289//416 291//416
f 291//367 293//367 295//367
f 295//367 297//367 299//367
f 299//417 301//417 295//417
f 301//367 303//367 295//367
f 303//418 305//418 307//418
f 307//367 309//367 311//367
f 279//419 283//419 287//419
f 287//367 291//367 295//367
f 303//420 307//420 295//420
f 307//421 311//421 295//421
f 311//367 255//367 263//367
f 263//422 271//422 279//422
f 279//423 287//423 295//423
f 311//367 263//367 279//367
# Vertices: 64, normals: 90, texture coordinates: 0, faces: 124

